<svg xmlns="http://www.w3.org/2000/svg" width="740.3572998046875" height="588.98095703125" viewBox="-286.443115234375 -225.63442993164062 740.3572998046875 588.98095703125"><title>Neo4j Graph Visualization</title><desc>Created using Neo4j (http://www.neo4j.com/)</desc><g class="layer relationships"><g class="relationship" transform="translate(146.0741799794518 99.17083217948357) rotate(517.9997450306053)"><path class="outline" fill="#A5ABB6" stroke="none" d="M 25 0.5 L 139.38128810334916 0.5 L 139.38128810334916 -0.5 L 25 -0.5 Z M 177.38519435334916 0.5 L 291.7664824566983 0.5 L 291.7664824566983 3.5 L 298.7664824566983 0 L 291.7664824566983 -3.5 L 291.7664824566983 -0.5 L 177.38519435334916 -0.5 Z"/><text text-anchor="middle" pointer-events="none" font-size="8px" fill="#000000" x="158.38324122834916" y="3" transform="rotate(180 158.38324122834916 0)" font-family="sans-serif">TYPEOF</text></g><g class="relationship" transform="translate(146.0741799794518 99.17083217948357) rotate(251.9176643483529)"><path class="outline" fill="#A5ABB6" stroke="none" d="M 25 0.5 L 72.64232248998474 0.5 L 72.64232248998474 -0.5 L 25 -0.5 Z M 110.64622873998474 0.5 L 158.28855122996947 0.5 L 158.28855122996947 3.5 L 165.28855122996947 0 L 158.28855122996947 -3.5 L 158.28855122996947 -0.5 L 110.64622873998474 -0.5 Z"/><text text-anchor="middle" pointer-events="none" font-size="8px" fill="#000000" x="91.64427561498474" y="3" transform="rotate(180 91.64427561498474 0)" font-family="sans-serif">TYPEOF</text></g><g class="relationship" transform="translate(146.0741799794518 99.17083217948357) rotate(395.70480909788307)"><path class="outline" fill="#A5ABB6" stroke="none" d="M 25 0.5 L 90.83147949518832 0.5 L 90.83147949518832 -0.5 L 25 -0.5 Z M 128.83538574518832 0.5 L 194.66686524037664 0.5 L 194.66686524037664 3.5 L 201.66686524037664 0 L 194.66686524037664 -3.5 L 194.66686524037664 -0.5 L 128.83538574518832 -0.5 Z"/><text text-anchor="middle" pointer-events="none" font-size="8px" fill="#000000" x="109.83343262018832" y="3" font-family="sans-serif">TYPEOF</text></g><g class="relationship" transform="translate(135.74998978270642 157.9631638658825) rotate(527.8334761903052)"><path class="outline" fill="#A5ABB6" stroke="none" d="M 25 0.5 L 125.76132154087693 0.5 L 125.76132154087693 -0.5 L 25 -0.5 Z M 163.76522779087693 0.5 L 264.52654933175387 0.5 L 264.52654933175387 3.5 L 271.52654933175387 0 L 264.52654933175387 -3.5 L 264.52654933175387 -0.5 L 163.76522779087693 -0.5 Z"/><text text-anchor="middle" pointer-events="none" font-size="8px" fill="#000000" x="144.76327466587693" y="3" transform="rotate(180 144.76327466587693 0)" font-family="sans-serif">TYPEOF</text></g><g class="relationship" transform="translate(135.74998978270642 157.9631638658825) rotate(258.505924129612)"><path class="outline" fill="#A5ABB6" stroke="none" d="M 25 0.5 L 99.79201958998081 0.5 L 99.79201958998081 -0.5 L 25 -0.5 Z M 137.7959258399808 0.5 L 212.58794542996162 0.5 L 212.58794542996162 3.5 L 219.58794542996162 0 L 212.58794542996162 -3.5 L 212.58794542996162 -0.5 L 137.7959258399808 -0.5 Z"/><text text-anchor="middle" pointer-events="none" font-size="8px" fill="#000000" x="118.79397271498081" y="3" transform="rotate(180 118.79397271498081 0)" font-family="sans-serif">TYPEOF</text></g><g class="relationship" transform="translate(135.74998978270642 157.9631638658825) rotate(380.7104219965715)"><path class="outline" fill="#A5ABB6" stroke="none" d="M 25 0.5 L 81.40532163455337 0.5 L 81.40532163455337 -0.5 L 25 -0.5 Z M 119.40922788455337 0.5 L 175.81454951910675 0.5 L 175.81454951910675 3.5 L 182.81454951910675 0 L 175.81454951910675 -3.5 L 175.81454951910675 -0.5 L 119.40922788455337 -0.5 Z"/><text text-anchor="middle" pointer-events="none" font-size="8px" fill="#000000" x="100.40727475955337" y="3" font-family="sans-serif">TYPEOF</text></g><g class="relationship" transform="translate(90.02463199307363 119.61954187235406) rotate(384.9746434278138)"><path class="outline" fill="#A5ABB6" stroke="none" d="M 25 0.5 L 109.93724627696031 0.5 L 109.93724627696031 -0.5 L 25 -0.5 Z M 147.9411525269603 0.5 L 232.87839880392062 0.5 L 232.87839880392062 3.5 L 239.87839880392062 0 L 232.87839880392062 -3.5 L 232.87839880392062 -0.5 L 147.9411525269603 -0.5 Z"/><text text-anchor="middle" pointer-events="none" font-size="8px" fill="#000000" x="128.9391994019603" y="3" font-family="sans-serif">TYPEOF</text></g><g class="relationship" transform="translate(90.02463199307363 119.61954187235406) rotate(517.5578779822733)"><path class="outline" fill="#A5ABB6" stroke="none" d="M 25 0.5 L 109.57099145387264 0.5 L 109.57099145387264 -0.5 L 25 -0.5 Z M 147.57489770387264 0.5 L 232.14588915774527 0.5 L 232.14588915774527 3.5 L 239.14588915774527 0 L 232.14588915774527 -3.5 L 232.14588915774527 -0.5 L 147.57489770387264 -0.5 Z"/><text text-anchor="middle" pointer-events="none" font-size="8px" fill="#000000" x="128.57294457887264" y="3" transform="rotate(180 128.57294457887264 0)" font-family="sans-serif">TYPEOF</text></g><g class="relationship" transform="translate(90.02463199307363 119.61954187235406) rotate(269.142685909016)"><path class="outline" fill="#A5ABB6" stroke="none" d="M 25 0.5 L 78.17891177414087 0.5 L 78.17891177414087 -0.5 L 25 -0.5 Z M 116.18281802414087 0.5 L 169.36172979828174 0.5 L 169.36172979828174 3.5 L 176.36172979828174 0 L 169.36172979828174 -3.5 L 169.36172979828174 -0.5 L 116.18281802414087 -0.5 Z"/><text text-anchor="middle" pointer-events="none" font-size="8px" fill="#000000" x="97.18086489914087" y="3" transform="rotate(180 97.18086489914087 0)" font-family="sans-serif">TYPEOF</text></g><g class="relationship" transform="translate(79.54738658894418 178.533729501156) rotate(271.64286407450123)"><path class="outline" fill="#A5ABB6" stroke="none" d="M 25 0.5 L 107.67824609447825 0.5 L 107.67824609447825 -0.5 L 25 -0.5 Z M 145.68215234447825 0.5 L 228.3603984389565 0.5 L 228.3603984389565 3.5 L 235.3603984389565 0 L 228.3603984389565 -3.5 L 228.3603984389565 -0.5 L 145.68215234447825 -0.5 Z"/><text text-anchor="middle" pointer-events="none" font-size="8px" fill="#000000" x="126.68019921947825" y="3" font-family="sans-serif">TYPEOF</text></g><g class="relationship" transform="translate(79.54738658894418 178.533729501156) rotate(371.9251323148929)"><path class="outline" fill="#A5ABB6" stroke="none" d="M 25 0.5 L 105.55579167745378 0.5 L 105.55579167745378 -0.5 L 25 -0.5 Z M 143.55969792745378 0.5 L 224.11548960490757 0.5 L 224.11548960490757 3.5 L 231.11548960490757 0 L 224.11548960490757 -3.5 L 224.11548960490757 -0.5 L 143.55969792745378 -0.5 Z"/><text text-anchor="middle" pointer-events="none" font-size="8px" fill="#000000" x="124.55774480245378" y="3" font-family="sans-serif">TYPEOF</text></g><g class="relationship" transform="translate(79.54738658894418 178.533729501156) rotate(529.828324457469)"><path class="outline" fill="#A5ABB6" stroke="none" d="M 25 0.5 L 96.1954717209472 0.5 L 96.1954717209472 -0.5 L 25 -0.5 Z M 134.19937797094718 0.5 L 205.3948496918944 0.5 L 205.3948496918944 3.5 L 212.3948496918944 0 L 205.3948496918944 -3.5 L 205.3948496918944 -0.5 L 134.19937797094718 -0.5 Z"/><text text-anchor="middle" pointer-events="none" font-size="8px" fill="#000000" x="115.1974248459472" y="3" transform="rotate(180 115.1974248459472 0)" font-family="sans-serif">TYPEOF</text></g><g class="relationship" transform="translate(45.30152193157088 80.68295973360758) rotate(387.89386423212056)"><path class="outline" fill="#A5ABB6" stroke="none" d="M 25 0.5 L 138.63682919532437 0.5 L 138.63682919532437 -0.5 L 25 -0.5 Z M 176.64073544532437 0.5 L 290.27756464064873 0.5 L 290.27756464064873 3.5 L 297.27756464064873 0 L 290.27756464064873 -3.5 L 290.27756464064873 -0.5 L 176.64073544532437 -0.5 Z"/><text text-anchor="middle" pointer-events="none" font-size="8px" fill="#000000" x="157.63878232032437" y="3" font-family="sans-serif">TYPEOF</text></g><g class="relationship" transform="translate(45.30152193157088 80.68295973360758) rotate(504.97294482699954)"><path class="outline" fill="#A5ABB6" stroke="none" d="M 25 0.5 L 99.26044631649353 0.5 L 99.26044631649353 -0.5 L 25 -0.5 Z M 137.26435256649353 0.5 L 211.52479888298706 0.5 L 211.52479888298706 3.5 L 218.52479888298706 0 L 211.52479888298706 -3.5 L 211.52479888298706 -0.5 L 137.26435256649353 -0.5 Z"/><text text-anchor="middle" pointer-events="none" font-size="8px" fill="#000000" x="118.26239944149353" y="3" transform="rotate(180 118.26239944149353 0)" font-family="sans-serif">TYPEOF</text></g><g class="relationship" transform="translate(45.30152193157088 80.68295973360758) rotate(284.4040888916445)"><path class="outline" fill="#A5ABB6" stroke="none" d="M 25 0.5 L 61.33472160980922 0.5 L 61.33472160980922 -0.5 L 25 -0.5 Z M 99.33862785980922 0.5 L 135.67334946961844 0.5 L 135.67334946961844 3.5 L 142.67334946961844 0 L 135.67334946961844 -3.5 L 135.67334946961844 -0.5 L 99.33862785980922 -0.5 Z"/><text text-anchor="middle" pointer-events="none" font-size="8px" fill="#000000" x="80.33667473480922" y="3" font-family="sans-serif">TYPEOF</text></g><g class="relationship" transform="translate(34.146529937400544 139.5990584139698) rotate(283.4342176704808)"><path class="outline" fill="#A5ABB6" stroke="none" d="M 25 0.5 L 91.2705213578551 0.5 L 91.2705213578551 -0.5 L 25 -0.5 Z M 129.2744276078551 0.5 L 195.5449489657102 0.5 L 195.5449489657102 3.5 L 202.5449489657102 0 L 195.5449489657102 -3.5 L 195.5449489657102 -0.5 L 129.2744276078551 -0.5 Z"/><text text-anchor="middle" pointer-events="none" font-size="8px" fill="#000000" x="110.2724744828551" y="3" font-family="sans-serif">TYPEOF</text></g><g class="relationship" transform="translate(34.146529937400544 139.5990584139698) rotate(377.2411121100072)"><path class="outline" fill="#A5ABB6" stroke="none" d="M 25 0.5 L 132.45539820708706 0.5 L 132.45539820708706 -0.5 L 25 -0.5 Z M 170.45930445708706 0.5 L 277.9147026641741 0.5 L 277.9147026641741 3.5 L 284.9147026641741 0 L 277.9147026641741 -3.5 L 277.9147026641741 -0.5 L 170.45930445708706 -0.5 Z"/><text text-anchor="middle" pointer-events="none" font-size="8px" fill="#000000" x="151.45735133208706" y="3" font-family="sans-serif">TYPEOF</text></g><g class="relationship" transform="translate(34.146529937400544 139.5990584139698) rotate(516.7566651344467)"><path class="outline" fill="#A5ABB6" stroke="none" d="M 25 0.5 L 79.94431320158027 0.5 L 79.94431320158027 -0.5 L 25 -0.5 Z M 117.94821945158027 0.5 L 172.89253265316054 0.5 L 172.89253265316054 3.5 L 179.89253265316054 0 L 172.89253265316054 -3.5 L 172.89253265316054 -0.5 L 117.94821945158027 -0.5 Z"/><text text-anchor="middle" pointer-events="none" font-size="8px" fill="#000000" x="98.94626632658027" y="3" transform="rotate(180 98.94626632658027 0)" font-family="sans-serif">TYPEOF</text></g><g class="relationship" transform="translate(97.72047227968751 235.96704337335936) rotate(183.52421095968606)"><path class="outline" fill="#A5ABB6" stroke="none" d="M 25 0.5 L 103.6550246263614 0.5 L 103.6550246263614 -0.5 L 25 -0.5 Z M 141.6589308763614 0.5 L 220.3139555027228 0.5 L 220.3139555027228 3.5 L 227.3139555027228 0 L 220.3139555027228 -3.5 L 220.3139555027228 -0.5 L 141.6589308763614 -0.5 Z"/><text text-anchor="middle" pointer-events="none" font-size="8px" fill="#000000" x="122.6569777513614" y="3" transform="rotate(180 122.6569777513614 0)" font-family="sans-serif">TYPEOF</text></g><g class="relationship" transform="translate(-147.03641140581036 334.34654756033217) rotate(266.4427881984418)"><path class="outline" fill="#A5ABB6" stroke="none" d="M 25 0.5 L 34.55263179078234 0.5 L 34.55263179078234 -0.5 L 25 -0.5 Z M 72.55653804078234 0.5 L 82.10916983156469 0.5 L 82.10916983156469 3.5 L 89.10916983156469 0 L 82.10916983156469 -3.5 L 82.10916983156469 -0.5 L 72.55653804078234 -0.5 Z"/><text text-anchor="middle" pointer-events="none" font-size="8px" fill="#000000" x="53.55458491578234" y="3" transform="rotate(180 53.55458491578234 0)" font-family="sans-serif">TYPEOF</text></g><g class="relationship" transform="translate(-79.73466975779718 22.757797112069003) rotate(470.6181124581352)"><path class="outline" fill="#A5ABB6" stroke="none" d="M 25 0.5 L 83.11255441630031 0.5 L 83.11255441630031 -0.5 L 25 -0.5 Z M 121.11646066630031 0.5 L 179.22901508260063 0.5 L 179.22901508260063 3.5 L 186.22901508260063 0 L 179.22901508260063 -3.5 L 179.22901508260063 -0.5 L 121.11646066630031 -0.5 Z"/><text text-anchor="middle" pointer-events="none" font-size="8px" fill="#000000" x="102.11450754130031" y="3" transform="rotate(180 102.11450754130031 0)" font-family="sans-serif">TYPEOF</text></g><g class="relationship" transform="translate(-41.78216363984937 68.98812988032303) rotate(486.5617759720584)"><path class="outline" fill="#A5ABB6" stroke="none" d="M 25 0.5 L 71.7873007362137 0.5 L 71.7873007362137 -0.5 L 25 -0.5 Z M 109.7912069862137 0.5 L 156.5785077224274 0.5 L 156.5785077224274 3.5 L 163.5785077224274 0 L 156.5785077224274 -3.5 L 156.5785077224274 -0.5 L 109.7912069862137 -0.5 Z"/><text text-anchor="middle" pointer-events="none" font-size="8px" fill="#000000" x="90.7892538612137" y="3" transform="rotate(180 90.7892538612137 0)" font-family="sans-serif">TYPEOF</text></g><g class="relationship" transform="translate(-229.8986280489275 131.05853314278068) rotate(409.71242113703624)"><path class="outline" fill="#A5ABB6" stroke="none" d="M 25 0.5 L 36.09643070283958 0.5 L 36.09643070283958 -0.5 L 25 -0.5 Z M 74.10033695283957 0.5 L 85.19676765567915 0.5 L 85.19676765567915 3.5 L 92.19676765567915 0 L 85.19676765567915 -3.5 L 85.19676765567915 -0.5 L 74.10033695283957 -0.5 Z"/><text text-anchor="middle" pointer-events="none" font-size="8px" fill="#000000" x="55.09838382783958" y="3" font-family="sans-serif">TYPEOF</text></g><g class="relationship" transform="translate(-257.4431124686728 251.9532234445046) rotate(343.0477665286161)"><path class="outline" fill="#A5ABB6" stroke="none" d="M 25 0.5 L 31.508278844002504 0.5 L 31.508278844002504 -0.5 L 25 -0.5 Z M 69.5121850940025 0.5 L 76.02046393800501 0.5 L 76.02046393800501 3.5 L 83.02046393800501 0 L 76.02046393800501 -3.5 L 76.02046393800501 -0.5 L 69.5121850940025 -0.5 Z"/><text text-anchor="middle" pointer-events="none" font-size="8px" fill="#000000" x="50.510231969002504" y="3" font-family="sans-serif">TYPEOF</text></g><g class="relationship" transform="translate(82.34498423817053 293.67269325513223) rotate(197.2040818221874)"><path class="outline" fill="#A5ABB6" stroke="none" d="M 25 0.5 L 101.2664396548663 0.5 L 101.2664396548663 -0.5 L 25 -0.5 Z M 139.2703459048663 0.5 L 215.5367855597326 0.5 L 215.5367855597326 3.5 L 222.5367855597326 0 L 215.5367855597326 -3.5 L 215.5367855597326 -0.5 L 139.2703459048663 -0.5 Z"/><text text-anchor="middle" pointer-events="none" font-size="8px" fill="#000000" x="120.2683927798663" y="3" transform="rotate(180 120.2683927798663 0)" font-family="sans-serif">TYPEOF</text></g><g class="relationship" transform="translate(260.0671609022238 30.23218807743883) rotate(212.89936680709934)"><path class="outline" fill="#A5ABB6" stroke="none" d="M 25 0.5 L 80.55310356761842 0.5 L 80.55310356761842 -0.5 L 25 -0.5 Z M 118.55700981761842 0.5 L 174.11011338523684 0.5 L 174.11011338523684 3.5 L 181.11011338523684 0 L 174.11011338523684 -3.5 L 174.11011338523684 -0.5 L 118.55700981761842 -0.5 Z"/><text text-anchor="middle" pointer-events="none" font-size="8px" fill="#000000" x="99.55505669261842" y="3" transform="rotate(180 99.55505669261842 0)" font-family="sans-serif">TYPEOF</text></g><g class="relationship" transform="translate(-79.73466975779718 22.757797112069003) rotate(327.93019274850775)"><path class="outline" fill="#A5ABB6" stroke="none" d="M 25 0.5 L 75.88492889612868 0.5 L 75.88492889612868 -0.5 L 25 -0.5 Z M 113.88883514612868 0.5 L 164.77376404225737 0.5 L 164.77376404225737 3.5 L 171.77376404225737 0 L 164.77376404225737 -3.5 L 164.77376404225737 -0.5 L 113.88883514612868 -0.5 Z"/><text text-anchor="middle" pointer-events="none" font-size="8px" fill="#000000" x="94.88688202112868" y="3" font-family="sans-serif">TYPEOF</text></g><g class="relationship" transform="translate(-41.78216363984937 68.98812988032303) rotate(310.5169971104968)"><path class="outline" fill="#A5ABB6" stroke="none" d="M 25 0.5 L 76.62008458512616 0.5 L 76.62008458512616 -0.5 L 25 -0.5 Z M 114.62399083512616 0.5 L 166.24407542025233 0.5 L 166.24407542025233 3.5 L 173.24407542025233 0 L 166.24407542025233 -3.5 L 166.24407542025233 -0.5 L 114.62399083512616 -0.5 Z"/><text text-anchor="middle" pointer-events="none" font-size="8px" fill="#000000" x="95.62203771012616" y="3" font-family="sans-serif">TYPEOF</text></g><g class="relationship" transform="translate(105.45433066461729 -196.6344235539849) rotate(459.1175906328192)"><path class="outline" fill="#A5ABB6" stroke="none" d="M 25 0.5 L 35.69068737338245 0.5 L 35.69068737338245 -0.5 L 25 -0.5 Z M 73.69459362338245 0.5 L 84.3852809967649 0.5 L 84.3852809967649 3.5 L 91.3852809967649 0 L 84.3852809967649 -3.5 L 84.3852809967649 -0.5 L 73.69459362338245 -0.5 Z"/><text text-anchor="middle" pointer-events="none" font-size="8px" fill="#000000" x="54.69264049838245" y="3" transform="rotate(180 54.69264049838245 0)" font-family="sans-serif">TYPEOF</text></g><g class="relationship" transform="translate(220.29488934446763 74.8939177580114) rotate(229.60116267072783)"><path class="outline" fill="#A5ABB6" stroke="none" d="M 25 0.5 L 80.32337978793676 0.5 L 80.32337978793676 -0.5 L 25 -0.5 Z M 118.32728603793676 0.5 L 173.65066582587352 0.5 L 173.65066582587352 3.5 L 180.65066582587352 0 L 173.65066582587352 -3.5 L 173.65066582587352 -0.5 L 118.32728603793676 -0.5 Z"/><text text-anchor="middle" pointer-events="none" font-size="8px" fill="#000000" x="99.32533291293676" y="3" transform="rotate(180 99.32533291293676 0)" font-family="sans-serif">TYPEOF</text></g><g class="relationship" transform="translate(97.72047227968751 235.96704337335936) rotate(358.88799682950867)"><path class="outline" fill="#A5ABB6" stroke="none" d="M 25 0.5 L 93.72745275424762 0.5 L 93.72745275424762 -0.5 L 25 -0.5 Z M 131.73135900424762 0.5 L 200.45881175849524 0.5 L 200.45881175849524 3.5 L 207.45881175849524 0 L 200.45881175849524 -3.5 L 200.45881175849524 -0.5 L 131.73135900424762 -0.5 Z"/><text text-anchor="middle" pointer-events="none" font-size="8px" fill="#000000" x="112.72940587924762" y="3" font-family="sans-serif">TYPEOF</text></g><g class="relationship" transform="translate(260.0671609022238 30.23218807743883) rotate(430.80129777230434)"><path class="outline" fill="#A5ABB6" stroke="none" d="M 25 0.5 L 84.03500079024329 0.5 L 84.03500079024329 -0.5 L 25 -0.5 Z M 122.03890704024329 0.5 L 181.07390783048658 0.5 L 181.07390783048658 3.5 L 188.07390783048658 0 L 181.07390783048658 -3.5 L 181.07390783048658 -0.5 L 122.03890704024329 -0.5 Z"/><text text-anchor="middle" pointer-events="none" font-size="8px" fill="#000000" x="103.03695391524329" y="3" font-family="sans-serif">TYPEOF</text></g><g class="relationship" transform="translate(390.3949030421721 319.50905650708506) rotate(235.61416359901216)"><path class="outline" fill="#A5ABB6" stroke="none" d="M 25 0.5 L 30.84732483274388 0.5 L 30.84732483274388 -0.5 L 25 -0.5 Z M 68.85123108274388 0.5 L 74.69855591548776 0.5 L 74.69855591548776 3.5 L 81.69855591548776 0 L 74.69855591548776 -3.5 L 74.69855591548776 -0.5 L 68.85123108274388 -0.5 Z"/><text text-anchor="middle" pointer-events="none" font-size="8px" fill="#000000" x="49.84927795774388" y="3" transform="rotate(180 49.84927795774388 0)" font-family="sans-serif">TYPEOF</text></g><g class="relationship" transform="translate(424.9141887839978 169.12077175087532) rotate(506.6674912407409)"><path class="outline" fill="#A5ABB6" stroke="none" d="M 25 0.5 L 34.21807658802548 0.5 L 34.21807658802548 -0.5 L 25 -0.5 Z M 72.22198283802548 0.5 L 81.44005942605096 0.5 L 81.44005942605096 3.5 L 88.44005942605096 0 L 81.44005942605096 -3.5 L 81.44005942605096 -0.5 L 72.22198283802548 -0.5 Z"/><text text-anchor="middle" pointer-events="none" font-size="8px" fill="#000000" x="53.22002971302548" y="3" transform="rotate(180 53.22002971302548 0)" font-family="sans-serif">TYPEOF</text></g><g class="relationship" transform="translate(220.29488934446763 74.8939177580114) rotate(414.94727493733933)"><path class="outline" fill="#A5ABB6" stroke="none" d="M 25 0.5 L 73.12304963759703 0.5 L 73.12304963759703 -0.5 L 25 -0.5 Z M 111.12695588759703 0.5 L 159.25000552519407 0.5 L 159.25000552519407 3.5 L 166.25000552519407 0 L 159.25000552519407 -3.5 L 159.25000552519407 -0.5 L 111.12695588759703 -0.5 Z"/><text text-anchor="middle" pointer-events="none" font-size="8px" fill="#000000" x="92.12500276259703" y="3" font-family="sans-serif">TYPEOF</text></g><g class="relationship" transform="translate(82.34498423817053 293.67269325513223) rotate(345.90515981508827)"><path class="outline" fill="#A5ABB6" stroke="none" d="M 25 0.5 L 105.23908515575904 0.5 L 105.23908515575904 -0.5 L 25 -0.5 Z M 143.24299140575903 0.5 L 223.48207656151808 0.5 L 223.48207656151808 3.5 L 230.48207656151808 0 L 223.48207656151808 -3.5 L 223.48207656151808 -0.5 L 143.24299140575903 -0.5 Z"/><text text-anchor="middle" pointer-events="none" font-size="8px" fill="#000000" x="124.24103828075904" y="3" font-family="sans-serif">TYPEOF</text></g></g><g class="layer nodes"><g class="node" transform="translate(45.30152193157088,80.68295973360758)"><circle class="outline" cx="0" cy="0" r="25" fill="#68BDF6" stroke="#5CA8DB" stroke-width="2px"/><text text-anchor="middle" pointer-events="none" font-family="sans-serif" dy="1.5625" font-size="25" fill="#FFFFFF"/><text text-anchor="middle" pointer-events="none" y="5" font-size="10px" fill="#FFFFFF" font-family="sans-serif"> julia</text></g><g class="node" transform="translate(-154.11633547607192,220.45722710047428)"><circle class="outline" cx="0" cy="0" r="25" fill="#FF756E" stroke="#E06760" stroke-width="2px"/><text text-anchor="middle" pointer-events="none" font-family="sans-serif" dy="1.5625" font-size="25" fill="#FFFFFF"/><text text-anchor="middle" pointer-events="none" y="5" font-size="10px" fill="#FFFFFF" font-family="sans-serif"> functional</text></g><g class="node selected" transform="translate(330.1355047020514,231.4557388743171)"><circle class="outline" cx="0" cy="0" r="25" fill="#FF756E" stroke="#E06760" stroke-width="2px"/><text text-anchor="middle" pointer-events="none" font-family="sans-serif" dy="1.5625" font-size="25" fill="#FFFFFF"/><text text-anchor="middle" pointer-events="none" y="5" font-size="10px" fill="#FFFFFF" font-family="sans-serif"> imperative</text></g><g class="node" transform="translate(87.01177819855434,-81.71964690958445)"><circle class="outline" cx="0" cy="0" r="25" fill="#FF756E" stroke="#E06760" stroke-width="2px"/><text text-anchor="middle" pointer-events="none" font-family="sans-serif" dy="1.5625" font-size="25" fill="#FFFFFF"/><text text-anchor="middle" pointer-events="none" y="5" font-size="10px" fill="#FFFFFF" font-family="sans-serif"> object-or…</text></g><g class="node" transform="translate(79.54738658894418,178.533729501156)"><circle class="outline" cx="0" cy="0" r="25" fill="#68BDF6" stroke="#5CA8DB" stroke-width="2px"/><text text-anchor="middle" pointer-events="none" font-family="sans-serif" dy="1.5625" font-size="25" fill="#FFFFFF"/><text text-anchor="middle" pointer-events="none" y="5" font-size="10px" fill="#FFFFFF" font-family="sans-serif"> lua</text></g><g class="node" transform="translate(146.0741799794518,99.17083217948357)"><circle class="outline" cx="0" cy="0" r="25" fill="#68BDF6" stroke="#5CA8DB" stroke-width="2px"/><text text-anchor="middle" pointer-events="none" font-family="sans-serif" dy="1.5625" font-size="25" fill="#FFFFFF"/><text text-anchor="middle" pointer-events="none" y="5" font-size="10px" fill="#FFFFFF" font-family="sans-serif"> ocaml</text></g><g class="node" transform="translate(90.02463199307363,119.61954187235406)"><circle class="outline" cx="0" cy="0" r="25" fill="#68BDF6" stroke="#5CA8DB" stroke-width="2px"/><text text-anchor="middle" pointer-events="none" font-family="sans-serif" dy="1.5625" font-size="25" fill="#FFFFFF"/><text text-anchor="middle" pointer-events="none" y="5" font-size="10px" fill="#FFFFFF" font-family="sans-serif"> c#</text></g><g class="node" transform="translate(135.74998978270642,157.9631638658825)"><circle class="outline" cx="0" cy="0" r="25" fill="#68BDF6" stroke="#5CA8DB" stroke-width="2px"/><text text-anchor="middle" pointer-events="none" font-family="sans-serif" dy="1.5625" font-size="25" fill="#FFFFFF"/><text text-anchor="middle" pointer-events="none" y="5" font-size="10px" fill="#FFFFFF" font-family="sans-serif"> java</text></g><g class="node" transform="translate(34.146529937400544,139.5990584139698)"><circle class="outline" cx="0" cy="0" r="25" fill="#68BDF6" stroke="#5CA8DB" stroke-width="2px"/><text text-anchor="middle" pointer-events="none" font-family="sans-serif" dy="1.5625" font-size="25" fill="#FFFFFF"/><text text-anchor="middle" pointer-events="none" y="5" font-size="10px" fill="#FFFFFF" font-family="sans-serif"> python</text></g><g class="node" transform="translate(97.72047227968751,235.96704337335936)"><circle class="outline" cx="0" cy="0" r="25" fill="#68BDF6" stroke="#5CA8DB" stroke-width="2px"/><text text-anchor="middle" pointer-events="none" font-family="sans-serif" dy="1.5625" font-size="25" fill="#FFFFFF"/><text text-anchor="middle" pointer-events="none" y="5" font-size="10px" fill="#FFFFFF" font-family="sans-serif"> javascript</text></g><g class="node" transform="translate(-147.03641140581036,334.34654756033217)"><circle class="outline" cx="0" cy="0" r="25" fill="#68BDF6" stroke="#5CA8DB" stroke-width="2px"/><text text-anchor="middle" pointer-events="none" font-family="sans-serif" dy="1.5625" font-size="25" fill="#FFFFFF"/><text text-anchor="middle" pointer-events="none" y="5" font-size="10px" fill="#FFFFFF" font-family="sans-serif"> haskell</text></g><g class="node" transform="translate(-79.73466975779718,22.757797112069003)"><circle class="outline" cx="0" cy="0" r="25" fill="#68BDF6" stroke="#5CA8DB" stroke-width="2px"/><text text-anchor="middle" pointer-events="none" font-family="sans-serif" dy="1.5625" font-size="25" fill="#FFFFFF"/><text text-anchor="middle" pointer-events="none" y="5" font-size="10px" fill="#FFFFFF" font-family="sans-serif"> c++</text></g><g class="node" transform="translate(-41.78216363984937,68.98812988032303)"><circle class="outline" cx="0" cy="0" r="25" fill="#68BDF6" stroke="#5CA8DB" stroke-width="2px"/><text text-anchor="middle" pointer-events="none" font-family="sans-serif" dy="1.5625" font-size="25" fill="#FFFFFF"/><text text-anchor="middle" pointer-events="none" y="5" font-size="10px" fill="#FFFFFF" font-family="sans-serif"> r</text></g><g class="node" transform="translate(-229.8986280489275,131.05853314278068)"><circle class="outline" cx="0" cy="0" r="25" fill="#68BDF6" stroke="#5CA8DB" stroke-width="2px"/><text text-anchor="middle" pointer-events="none" font-family="sans-serif" dy="1.5625" font-size="25" fill="#FFFFFF"/><text text-anchor="middle" pointer-events="none" y="5" font-size="10px" fill="#FFFFFF" font-family="sans-serif"> elixir</text></g><g class="node" transform="translate(-257.4431124686728,251.9532234445046)"><circle class="outline" cx="0" cy="0" r="25" fill="#68BDF6" stroke="#5CA8DB" stroke-width="2px"/><text text-anchor="middle" pointer-events="none" font-family="sans-serif" dy="1.5625" font-size="25" fill="#FFFFFF"/><text text-anchor="middle" pointer-events="none" y="5" font-size="10px" fill="#FFFFFF" font-family="sans-serif"> erlang</text></g><g class="node" transform="translate(82.34498423817053,293.67269325513223)"><circle class="outline" cx="0" cy="0" r="25" fill="#68BDF6" stroke="#5CA8DB" stroke-width="2px"/><text text-anchor="middle" pointer-events="none" font-family="sans-serif" dy="1.5625" font-size="25" fill="#FFFFFF"/><text text-anchor="middle" pointer-events="none" y="5" font-size="10px" fill="#FFFFFF" font-family="sans-serif"> rust</text></g><g class="node" transform="translate(260.0671609022238,30.23218807743883)"><circle class="outline" cx="0" cy="0" r="25" fill="#68BDF6" stroke="#5CA8DB" stroke-width="2px"/><text text-anchor="middle" pointer-events="none" font-family="sans-serif" dy="1.5625" font-size="25" fill="#FFFFFF"/><text text-anchor="middle" pointer-events="none" y="5" font-size="10px" fill="#FFFFFF" font-family="sans-serif"> perl</text></g><g class="node" transform="translate(105.45433066461729,-196.6344235539849)"><circle class="outline" cx="0" cy="0" r="25" fill="#68BDF6" stroke="#5CA8DB" stroke-width="2px"/><text text-anchor="middle" pointer-events="none" font-family="sans-serif" dy="1.5625" font-size="25" fill="#FFFFFF"/><text text-anchor="middle" pointer-events="none" font-family="sans-serif" dy="1.5625" font-size="25" fill="#FFFFFF"/><text text-anchor="middle" pointer-events="none" y="0" font-size="10px" fill="#FFFFFF" font-family="sans-serif"> visual</text><text text-anchor="middle" pointer-events="none" y="10" font-size="10px" fill="#FFFFFF" font-family="sans-serif"> basic</text></g><g class="node" transform="translate(220.29488934446763,74.8939177580114)"><circle class="outline" cx="0" cy="0" r="25" fill="#68BDF6" stroke="#5CA8DB" stroke-width="2px"/><text text-anchor="middle" pointer-events="none" font-family="sans-serif" dy="1.5625" font-size="25" fill="#FFFFFF"/><text text-anchor="middle" pointer-events="none" y="5" font-size="10px" fill="#FFFFFF" font-family="sans-serif"> php</text></g><g class="node" transform="translate(390.3949030421721,319.50905650708506)"><circle class="outline" cx="0" cy="0" r="25" fill="#68BDF6" stroke="#5CA8DB" stroke-width="2px"/><text text-anchor="middle" pointer-events="none" font-family="sans-serif" dy="1.5625" font-size="25" fill="#FFFFFF"/><text text-anchor="middle" pointer-events="none" y="5" font-size="10px" fill="#FFFFFF" font-family="sans-serif"> c</text></g><g class="node" transform="translate(424.9141887839978,169.12077175087532)"><circle class="outline" cx="0" cy="0" r="25" fill="#68BDF6" stroke="#5CA8DB" stroke-width="2px"/><text text-anchor="middle" pointer-events="none" font-family="sans-serif" dy="1.5625" font-size="25" fill="#FFFFFF"/><text text-anchor="middle" pointer-events="none" y="5" font-size="10px" fill="#FFFFFF" font-family="sans-serif"> matlab</text></g></g></svg>