<svg xmlns="http://www.w3.org/2000/svg" width="764.96142578125" height="414.61279296875" viewBox="-325.35498046875 -113.56270599365234 764.96142578125 414.61279296875"><title>Neo4j Graph Visualization</title><desc>Created using Neo4j (http://www.neo4j.com/)</desc><g class="layer relationships"><g class="relationship" transform="translate(169.07092193762776 272.0500802906764) rotate(237.2146854416124)"><path class="outline" fill="#A5ABB6" stroke="none" d="M 25 0.5 L 67.59577892635929 0.5 L 67.59577892635929 -0.5 L 25 -0.5 Z M 103.81843517635929 0.5 L 146.41421410271857 0.5 L 146.41421410271857 3.5 L 153.41421410271857 0 L 146.41421410271857 -3.5 L 146.41421410271857 -0.5 L 103.81843517635929 -0.5 Z"/><text text-anchor="middle" pointer-events="none" font-size="8px" fill="#000000" x="85.70710705135929" y="3" transform="rotate(180 85.70710705135929 0)" font-family="sans-serif">KNOWS</text></g><g class="relationship" transform="translate(104.79015908821573 6.519625081088739) rotate(533.854826484475)"><path class="outline" fill="#A5ABB6" stroke="none" d="M 25 0.5 L 134.64103165238316 0.5 L 134.64103165238316 -0.5 L 25 -0.5 Z M 172.64493790238316 0.5 L 282.2859695547663 0.5 L 282.2859695547663 3.5 L 289.2859695547663 0 L 282.2859695547663 -3.5 L 282.2859695547663 -0.5 L 172.64493790238316 -0.5 Z"/><text text-anchor="middle" pointer-events="none" font-size="8px" fill="#000000" x="153.64298477738316" y="3" transform="rotate(180 153.64298477738316 0)" font-family="sans-serif">TYPEOF</text></g><g class="relationship" transform="translate(104.79015908821573 6.519625081088739) rotate(364.4587597470311)"><path class="outline" fill="#A5ABB6" stroke="none" d="M 25 0.5 L 74.59867305330643 0.5 L 74.59867305330643 -0.5 L 25 -0.5 Z M 112.60257930330643 0.5 L 162.20125235661286 0.5 L 162.20125235661286 3.5 L 169.20125235661286 0 L 162.20125235661286 -3.5 L 162.20125235661286 -0.5 L 112.60257930330643 -0.5 Z"/><text text-anchor="middle" pointer-events="none" font-size="8px" fill="#000000" x="93.60062617830643" y="3" font-family="sans-serif">TYPEOF</text></g><g class="relationship" transform="translate(5.597776783110881 -21.608049373575867) rotate(523.8481770357623)"><path class="outline" fill="#A5ABB6" stroke="none" d="M 25 0.5 L 88.52430975164259 0.5 L 88.52430975164259 -0.5 L 25 -0.5 Z M 126.52821600164259 0.5 L 190.05252575328518 0.5 L 190.05252575328518 3.5 L 197.05252575328518 0 L 190.05252575328518 -3.5 L 190.05252575328518 -0.5 L 126.52821600164259 -0.5 Z"/><text text-anchor="middle" pointer-events="none" font-size="8px" fill="#000000" x="107.52626287664259" y="3" transform="rotate(180 107.52626287664259 0)" font-family="sans-serif">TYPEOF</text></g><g class="relationship" transform="translate(5.597776783110881 -21.608049373575867) rotate(368.39757970028427)"><path class="outline" fill="#A5ABB6" stroke="none" d="M 25 0.5 L 125.48766412803116 0.5 L 125.48766412803116 -0.5 L 25 -0.5 Z M 163.49157037803116 0.5 L 263.9792345060623 0.5 L 263.9792345060623 3.5 L 270.9792345060623 0 L 263.9792345060623 -3.5 L 263.9792345060623 -0.5 L 163.49157037803116 -0.5 Z"/><text text-anchor="middle" pointer-events="none" font-size="8px" fill="#000000" x="144.48961725303116" y="3" font-family="sans-serif">TYPEOF</text></g><g class="relationship" transform="translate(88.62056839137706 64.27461378594317) rotate(184.6520092362046)"><path class="outline" fill="#A5ABB6" stroke="none" d="M 25 0.5 L 126.1429553026631 0.5 L 126.1429553026631 -0.5 L 25 -0.5 Z M 164.1468615526631 0.5 L 265.2898168553262 0.5 L 265.2898168553262 3.5 L 272.2898168553262 0 L 265.2898168553262 -3.5 L 265.2898168553262 -0.5 L 164.1468615526631 -0.5 Z"/><text text-anchor="middle" pointer-events="none" font-size="8px" fill="#000000" x="145.1449084276631" y="3" transform="rotate(180 145.1449084276631 0)" font-family="sans-serif">TYPEOF</text></g><g class="relationship" transform="translate(88.62056839137706 64.27461378594317) rotate(348.50612808544815)"><path class="outline" fill="#A5ABB6" stroke="none" d="M 25 0.5 L 84.53613754438493 0.5 L 84.53613754438493 -0.5 L 25 -0.5 Z M 122.54004379438493 0.5 L 182.07618133876986 0.5 L 182.07618133876986 3.5 L 189.07618133876986 0 L 182.07618133876986 -3.5 L 182.07618133876986 -0.5 L 122.54004379438493 -0.5 Z"/><text text-anchor="middle" pointer-events="none" font-size="8px" fill="#000000" x="103.53809066938493" y="3" font-family="sans-serif">TYPEOF</text></g><g class="relationship" transform="translate(46.88453579686746 21.401526245341937) rotate(360.0491131147718)"><path class="outline" fill="#A5ABB6" stroke="none" d="M 25 0.5 L 103.25766057816205 0.5 L 103.25766057816205 -0.5 L 25 -0.5 Z M 141.26156682816205 0.5 L 219.5192274063241 0.5 L 219.5192274063241 3.5 L 226.5192274063241 0 L 219.5192274063241 -3.5 L 219.5192274063241 -0.5 L 141.26156682816205 -0.5 Z"/><text text-anchor="middle" pointer-events="none" font-size="8px" fill="#000000" x="122.25961370316205" y="3" font-family="sans-serif">TYPEOF</text></g><g class="relationship" transform="translate(46.88453579686746 21.401526245341937) rotate(535.7850002023392)"><path class="outline" fill="#A5ABB6" stroke="none" d="M 25 0.5 L 105.13046470383655 0.5 L 105.13046470383655 -0.5 L 25 -0.5 Z M 143.13437095383654 0.5 L 223.2648356576731 0.5 L 223.2648356576731 3.5 L 230.2648356576731 0 L 223.2648356576731 -3.5 L 223.2648356576731 -0.5 L 143.13437095383654 -0.5 Z"/><text text-anchor="middle" pointer-events="none" font-size="8px" fill="#000000" x="124.13241782883655" y="3" transform="rotate(180 124.13241782883655 0)" font-family="sans-serif">TYPEOF</text></g><g class="relationship" transform="translate(63.37858645377277 -36.78032813185935) rotate(373.9538847567332)"><path class="outline" fill="#A5ABB6" stroke="none" d="M 25 0.5 L 98.58381481293742 0.5 L 98.58381481293742 -0.5 L 25 -0.5 Z M 136.58772106293742 0.5 L 210.17153587587484 0.5 L 210.17153587587484 3.5 L 217.17153587587484 0 L 210.17153587587484 -3.5 L 210.17153587587484 -0.5 L 136.58772106293742 -0.5 Z"/><text text-anchor="middle" pointer-events="none" font-size="8px" fill="#000000" x="117.58576793793742" y="3" font-family="sans-serif">TYPEOF</text></g><g class="relationship" transform="translate(63.37858645377277 -36.78032813185935) rotate(524.1532396563364)"><path class="outline" fill="#A5ABB6" stroke="none" d="M 25 0.5 L 118.3866868124945 0.5 L 118.3866868124945 -0.5 L 25 -0.5 Z M 156.3905930624945 0.5 L 249.777279874989 0.5 L 249.777279874989 3.5 L 256.777279874989 0 L 249.777279874989 -3.5 L 249.777279874989 -0.5 L 156.3905930624945 -0.5 Z"/><text text-anchor="middle" pointer-events="none" font-size="8px" fill="#000000" x="137.3886399374945" y="3" transform="rotate(180 137.3886399374945 0)" font-family="sans-serif">TYPEOF</text></g><g class="relationship" transform="translate(-10.852332481931029 36.0548717919904) rotate(357.3270631590559)"><path class="outline" fill="#A5ABB6" stroke="none" d="M 25 0.5 L 132.29446487428035 0.5 L 132.29446487428035 -0.5 L 25 -0.5 Z M 170.29837112428035 0.5 L 277.5928359985607 0.5 L 277.5928359985607 3.5 L 284.5928359985607 0 L 277.5928359985607 -3.5 L 277.5928359985607 -0.5 L 170.29837112428035 -0.5 Z"/><text text-anchor="middle" pointer-events="none" font-size="8px" fill="#000000" x="151.29641799928035" y="3" font-family="sans-serif">TYPEOF</text></g><g class="relationship" transform="translate(-10.852332481931029 36.0548717919904) rotate(538.8042830847455)"><path class="outline" fill="#A5ABB6" stroke="none" d="M 25 0.5 L 75.93825501129331 0.5 L 75.93825501129331 -0.5 L 25 -0.5 Z M 113.94216126129331 0.5 L 164.88041627258661 0.5 L 164.88041627258661 3.5 L 171.88041627258661 0 L 164.88041627258661 -3.5 L 164.88041627258661 -0.5 L 113.94216126129331 -0.5 Z"/><text text-anchor="middle" pointer-events="none" font-size="8px" fill="#000000" x="94.94020813629331" y="3" transform="rotate(180 94.94020813629331 0)" font-family="sans-serif">TYPEOF</text></g><g class="relationship" transform="translate(72.46091895958361 122.05628335735987) rotate(336.0332426414236)"><path class="outline" fill="#A5ABB6" stroke="none" d="M 25 0.5 L 101.12869807729712 0.5 L 101.12869807729712 -0.5 L 25 -0.5 Z M 139.13260432729712 0.5 L 215.26130240459423 0.5 L 215.26130240459423 3.5 L 222.26130240459423 0 L 215.26130240459423 -3.5 L 215.26130240459423 -0.5 L 139.13260432729712 -0.5 Z"/><text text-anchor="middle" pointer-events="none" font-size="8px" fill="#000000" x="120.13065120229712" y="3" font-family="sans-serif">TYPEOF</text></g><g class="relationship" transform="translate(72.46091895958361 122.05628335735987) rotate(196.29456387962205)"><path class="outline" fill="#A5ABB6" stroke="none" d="M 25 0.5 L 123.43547162179865 0.5 L 123.43547162179865 -0.5 L 25 -0.5 Z M 161.43937787179865 0.5 L 259.8748494935973 0.5 L 259.8748494935973 3.5 L 266.8748494935973 0 L 259.8748494935973 -3.5 L 259.8748494935973 -0.5 L 161.43937787179865 -0.5 Z"/><text text-anchor="middle" pointer-events="none" font-size="8px" fill="#000000" x="142.43742474679865" y="3" transform="rotate(180 142.43742474679865 0)" font-family="sans-serif">TYPEOF</text></g><g class="relationship" transform="translate(30.615478783587776 79.04714892176426) rotate(347.89566138551163)"><path class="outline" fill="#A5ABB6" stroke="none" d="M 25 0.5 L 114.43664939976804 0.5 L 114.43664939976804 -0.5 L 25 -0.5 Z M 152.44055564976804 0.5 L 241.8772050495361 0.5 L 241.8772050495361 3.5 L 248.8772050495361 0 L 241.8772050495361 -3.5 L 241.8772050495361 -0.5 L 152.44055564976804 -0.5 Z"/><text text-anchor="middle" pointer-events="none" font-size="8px" fill="#000000" x="133.43860252476804" y="3" font-family="sans-serif">TYPEOF</text></g><g class="relationship" transform="translate(30.615478783587776 79.04714892176426) rotate(189.26717843173503)"><path class="outline" fill="#A5ABB6" stroke="none" d="M 25 0.5 L 98.22645662634397 0.5 L 98.22645662634397 -0.5 L 25 -0.5 Z M 136.23036287634397 0.5 L 209.45681950268795 0.5 L 209.45681950268795 3.5 L 216.45681950268795 0 L 209.45681950268795 -3.5 L 209.45681950268795 -0.5 L 136.23036287634397 -0.5 Z"/><text text-anchor="middle" pointer-events="none" font-size="8px" fill="#000000" x="117.22840975134397" y="3" transform="rotate(180 117.22840975134397 0)" font-family="sans-serif">TYPEOF</text></g><g class="relationship" transform="translate(-193.4995086736667 161.43981152885337) rotate(263.3262591370168)"><path class="outline" fill="#A5ABB6" stroke="none" d="M 25 0.5 L 38.54998468437898 0.5 L 38.54998468437898 -0.5 L 25 -0.5 Z M 76.55389093437898 0.5 L 90.10387561875795 0.5 L 90.10387561875795 3.5 L 97.10387561875795 0 L 90.10387561875795 -3.5 L 90.10387561875795 -0.5 L 76.55389093437898 -0.5 Z"/><text text-anchor="middle" pointer-events="none" font-size="8px" fill="#000000" x="57.55193780937898" y="3" transform="rotate(180 57.55193780937898 0)" font-family="sans-serif">TYPEOF</text></g><g class="relationship" transform="translate(-50.765727248525224 181.95851728634014) rotate(222.10067482439945)"><path class="outline" fill="#A5ABB6" stroke="none" d="M 25 0.5 L 83.24665176402567 0.5 L 83.24665176402567 -0.5 L 25 -0.5 Z M 121.25055801402567 0.5 L 179.49720977805134 0.5 L 179.49720977805134 3.5 L 186.49720977805134 0 L 179.49720977805134 -3.5 L 179.49720977805134 -0.5 L 121.25055801402567 -0.5 Z"/><text text-anchor="middle" pointer-events="none" font-size="8px" fill="#000000" x="102.24860488902567" y="3" transform="rotate(180 102.24860488902567 0)" font-family="sans-serif">TYPEOF</text></g><g class="relationship" transform="translate(-192.51647566899936 -74.60251621133524) rotate(457.5314999701646)"><path class="outline" fill="#A5ABB6" stroke="none" d="M 25 0.5 L 35.38031300552532 0.5 L 35.38031300552532 -0.5 L 25 -0.5 Z M 73.38421925552532 0.5 L 83.76453226105065 0.5 L 83.76453226105065 3.5 L 90.76453226105065 0 L 83.76453226105065 -3.5 L 83.76453226105065 -0.5 L 73.38421925552532 -0.5 Z"/><text text-anchor="middle" pointer-events="none" font-size="8px" fill="#000000" x="54.38226613052532" y="3" transform="rotate(180 54.38226613052532 0)" font-family="sans-serif">TYPEOF</text></g><g class="relationship" transform="translate(-296.35497782093535 -14.621827112853824) rotate(391.71143786304896)"><path class="outline" fill="#A5ABB6" stroke="none" d="M 25 0.5 L 29.61069235050961 0.5 L 29.61069235050961 -0.5 L 25 -0.5 Z M 67.61459860050961 0.5 L 72.22529095101922 0.5 L 72.22529095101922 3.5 L 79.22529095101922 0 L 72.22529095101922 -3.5 L 72.22529095101922 -0.5 L 67.61459860050961 -0.5 Z"/><text text-anchor="middle" pointer-events="none" font-size="8px" fill="#000000" x="48.61264547550961" y="3" font-family="sans-serif">TYPEOF</text></g><g class="relationship" transform="translate(-273.492555931981 133.2984288299449) rotate(305.2423206614652)"><path class="outline" fill="#A5ABB6" stroke="none" d="M 25 0.5 L 34.51590135543231 0.5 L 34.51590135543231 -0.5 L 25 -0.5 Z M 72.5198076054323 0.5 L 82.03570896086462 0.5 L 82.03570896086462 3.5 L 89.03570896086462 0 L 82.03570896086462 -3.5 L 82.03570896086462 -0.5 L 72.5198076054323 -0.5 Z"/><text text-anchor="middle" pointer-events="none" font-size="8px" fill="#000000" x="53.51785448043231" y="3" font-family="sans-serif">TYPEOF</text></g><g class="relationship" transform="translate(169.07092193762776 272.0500802906764) rotate(202.2843772011297)"><path class="outline" fill="#A5ABB6" stroke="none" d="M 25 0.5 L 97.17907768493903 0.5 L 97.17907768493903 -0.5 L 25 -0.5 Z M 133.40173393493905 0.5 L 205.58081161987806 0.5 L 205.58081161987806 3.5 L 212.58081161987806 0 L 205.58081161987806 -3.5 L 205.58081161987806 -0.5 L 133.40173393493905 -0.5 Z"/><text text-anchor="middle" pointer-events="none" font-size="8px" fill="#000000" x="115.29040580993903" y="3" transform="rotate(180 115.29040580993903 0)" font-family="sans-serif">KNOWS</text></g><g class="relationship" transform="translate(410.60645523433175 13.241603356949883) rotate(535.7309999707813)"><path class="outline" fill="#A5ABB6" stroke="none" d="M 25 0.5 L 33.75552236846563 0.5 L 33.75552236846563 -0.5 L 25 -0.5 Z M 71.75942861846562 0.5 L 80.51495098693125 0.5 L 80.51495098693125 3.5 L 87.51495098693125 0 L 80.51495098693125 -3.5 L 80.51495098693125 -0.5 L 71.75942861846562 -0.5 Z"/><text text-anchor="middle" pointer-events="none" font-size="8px" fill="#000000" x="52.75747549346563" y="3" transform="rotate(180 52.75747549346563 0)" font-family="sans-serif">TYPEOF</text></g><g class="relationship" transform="translate(337.78120032904116 -84.56270821330668) rotate(470.3476491687502)"><path class="outline" fill="#A5ABB6" stroke="none" d="M 25 0.5 L 34.12124615130184 0.5 L 34.12124615130184 -0.5 L 25 -0.5 Z M 72.12515240130185 0.5 L 81.24639855260368 0.5 L 81.24639855260368 3.5 L 88.24639855260368 0 L 81.24639855260368 -3.5 L 81.24639855260368 -0.5 L 72.12515240130185 -0.5 Z"/><text text-anchor="middle" pointer-events="none" font-size="8px" fill="#000000" x="53.12319927630184" y="3" transform="rotate(180 53.12319927630184 0)" font-family="sans-serif">TYPEOF</text></g><g class="relationship" transform="translate(267.05019746202413 165.11967506655697) rotate(282.32471789754635)"><path class="outline" fill="#A5ABB6" stroke="none" d="M 25 0.5 L 50.941940773126916 0.5 L 50.941940773126916 -0.5 L 25 -0.5 Z M 88.94584702312692 0.5 L 114.88778779625383 0.5 L 114.88778779625383 3.5 L 121.88778779625383 0 L 114.88778779625383 -3.5 L 114.88778779625383 -0.5 L 88.94584702312692 -0.5 Z"/><text text-anchor="middle" pointer-events="none" font-size="8px" fill="#000000" x="69.94389389812692" y="3" font-family="sans-serif">TYPEOF</text></g><g class="relationship" transform="translate(375.4360874526936 111.63670500000136) rotate(229.44541787473383)"><path class="outline" fill="#A5ABB6" stroke="none" d="M 25 0.5 L 36.73806295904381 0.5 L 36.73806295904381 -0.5 L 25 -0.5 Z M 74.74196920904382 0.5 L 86.48003216808762 0.5 L 86.48003216808762 3.5 L 93.48003216808762 0 L 86.48003216808762 -3.5 L 86.48003216808762 -0.5 L 74.74196920904382 -0.5 Z"/><text text-anchor="middle" pointer-events="none" font-size="8px" fill="#000000" x="55.74001608404381" y="3" transform="rotate(180 55.74001608404381 0)" font-family="sans-serif">TYPEOF</text></g><g class="relationship" transform="translate(169.07092193762776 272.0500802906764) rotate(312.498721850298)"><path class="outline" fill="#A5ABB6" stroke="none" d="M 25 0.5 L 50.904273633656004 0.5 L 50.904273633656004 -0.5 L 25 -0.5 Z M 87.126929883656 0.5 L 113.03120351731201 0.5 L 113.03120351731201 3.5 L 120.03120351731201 0 L 113.03120351731201 -3.5 L 113.03120351731201 -0.5 L 87.126929883656 -0.5 Z"/><text text-anchor="middle" pointer-events="none" font-size="8px" fill="#000000" x="69.015601758656" y="3" font-family="sans-serif">KNOWS</text></g></g><g class="layer nodes"><g class="node" transform="translate(-10.852332481931029,36.0548717919904)"><circle class="outline" cx="0" cy="0" r="25" fill="#68BDF6" stroke="#5CA8DB" stroke-width="2px"/><text text-anchor="middle" pointer-events="none" font-family="sans-serif" dy="1.5625" font-size="25" fill="#FFFFFF"/><text text-anchor="middle" pointer-events="none" y="5" font-size="10px" fill="#FFFFFF" font-family="sans-serif"> julia</text></g><g class="node" transform="translate(-207.6898772976171,40.1633097676403)"><circle class="outline" cx="0" cy="0" r="25" fill="#DE9BF9" stroke="#BF85D6" stroke-width="2px"/><text text-anchor="middle" pointer-events="none" font-family="sans-serif" dy="1.5625" font-size="25" fill="#FFFFFF"/><text text-anchor="middle" pointer-events="none" y="5" font-size="10px" fill="#FFFFFF" font-family="sans-serif"> functional</text></g><g class="node selected" transform="translate(298.4036707991728,21.61712486840193)"><circle class="outline" cx="0" cy="0" r="25" fill="#DE9BF9" stroke="#BF85D6" stroke-width="2px"/><text text-anchor="middle" pointer-events="none" font-family="sans-serif" dy="1.5625" font-size="25" fill="#FFFFFF"/><text text-anchor="middle" pointer-events="none" y="5" font-size="10px" fill="#FFFFFF" font-family="sans-serif"> imperative</text></g><g class="node" transform="translate(169.07092193762776,272.0500802906764)"><circle class="outline" cx="0" cy="0" r="25" fill="#FB95AF" stroke="#E0849B" stroke-width="2px"/><text text-anchor="middle" pointer-events="none" font-family="sans-serif" dy="1.5625" font-size="25" fill="#FFFFFF"/><text text-anchor="middle" pointer-events="none" y="5" font-size="10px" fill="#FFFFFF" font-family="sans-serif"> respond…</text></g><g class="node" transform="translate(63.37858645377277,-36.78032813185935)"><circle class="outline" cx="0" cy="0" r="25" fill="#68BDF6" stroke="#5CA8DB" stroke-width="2px"/><text text-anchor="middle" pointer-events="none" font-family="sans-serif" dy="1.5625" font-size="25" fill="#FFFFFF"/><text text-anchor="middle" pointer-events="none" y="5" font-size="10px" fill="#FFFFFF" font-family="sans-serif"> lua</text></g><g class="node" transform="translate(5.597776783110881,-21.608049373575867)"><circle class="outline" cx="0" cy="0" r="25" fill="#68BDF6" stroke="#5CA8DB" stroke-width="2px"/><text text-anchor="middle" pointer-events="none" font-family="sans-serif" dy="1.5625" font-size="25" fill="#FFFFFF"/><text text-anchor="middle" pointer-events="none" y="5" font-size="10px" fill="#FFFFFF" font-family="sans-serif"> ocaml</text></g><g class="node" transform="translate(104.79015908821573,6.519625081088739)"><circle class="outline" cx="0" cy="0" r="25" fill="#68BDF6" stroke="#5CA8DB" stroke-width="2px"/><text text-anchor="middle" pointer-events="none" font-family="sans-serif" dy="1.5625" font-size="25" fill="#FFFFFF"/><text text-anchor="middle" pointer-events="none" y="5" font-size="10px" fill="#FFFFFF" font-family="sans-serif"> javascript</text></g><g class="node" transform="translate(30.615478783587776,79.04714892176426)"><circle class="outline" cx="0" cy="0" r="25" fill="#68BDF6" stroke="#5CA8DB" stroke-width="2px"/><text text-anchor="middle" pointer-events="none" font-family="sans-serif" dy="1.5625" font-size="25" fill="#FFFFFF"/><text text-anchor="middle" pointer-events="none" y="5" font-size="10px" fill="#FFFFFF" font-family="sans-serif"> rust</text></g><g class="node" transform="translate(46.88453579686746,21.401526245341937)"><circle class="outline" cx="0" cy="0" r="25" fill="#68BDF6" stroke="#5CA8DB" stroke-width="2px"/><text text-anchor="middle" pointer-events="none" font-family="sans-serif" dy="1.5625" font-size="25" fill="#FFFFFF"/><text text-anchor="middle" pointer-events="none" y="5" font-size="10px" fill="#FFFFFF" font-family="sans-serif"> c#</text></g><g class="node" transform="translate(88.62056839137706,64.27461378594317)"><circle class="outline" cx="0" cy="0" r="25" fill="#68BDF6" stroke="#5CA8DB" stroke-width="2px"/><text text-anchor="middle" pointer-events="none" font-family="sans-serif" dy="1.5625" font-size="25" fill="#FFFFFF"/><text text-anchor="middle" pointer-events="none" y="5" font-size="10px" fill="#FFFFFF" font-family="sans-serif"> java</text></g><g class="node" transform="translate(72.46091895958361,122.05628335735987)"><circle class="outline" cx="0" cy="0" r="25" fill="#68BDF6" stroke="#5CA8DB" stroke-width="2px"/><text text-anchor="middle" pointer-events="none" font-family="sans-serif" dy="1.5625" font-size="25" fill="#FFFFFF"/><text text-anchor="middle" pointer-events="none" y="5" font-size="10px" fill="#FFFFFF" font-family="sans-serif"> python</text></g><g class="node" transform="translate(-193.4995086736667,161.43981152885337)"><circle class="outline" cx="0" cy="0" r="25" fill="#68BDF6" stroke="#5CA8DB" stroke-width="2px"/><text text-anchor="middle" pointer-events="none" font-family="sans-serif" dy="1.5625" font-size="25" fill="#FFFFFF"/><text text-anchor="middle" pointer-events="none" y="5" font-size="10px" fill="#FFFFFF" font-family="sans-serif"> haskell</text></g><g class="node" transform="translate(-50.765727248525224,181.95851728634014)"><circle class="outline" cx="0" cy="0" r="25" fill="#68BDF6" stroke="#5CA8DB" stroke-width="2px"/><text text-anchor="middle" pointer-events="none" font-family="sans-serif" dy="1.5625" font-size="25" fill="#FFFFFF"/><text text-anchor="middle" pointer-events="none" y="5" font-size="10px" fill="#FFFFFF" font-family="sans-serif"> c++</text></g><g class="node" transform="translate(-192.51647566899936,-74.60251621133524)"><circle class="outline" cx="0" cy="0" r="25" fill="#68BDF6" stroke="#5CA8DB" stroke-width="2px"/><text text-anchor="middle" pointer-events="none" font-family="sans-serif" dy="1.5625" font-size="25" fill="#FFFFFF"/><text text-anchor="middle" pointer-events="none" y="5" font-size="10px" fill="#FFFFFF" font-family="sans-serif"> r</text></g><g class="node" transform="translate(-296.35497782093535,-14.621827112853824)"><circle class="outline" cx="0" cy="0" r="25" fill="#68BDF6" stroke="#5CA8DB" stroke-width="2px"/><text text-anchor="middle" pointer-events="none" font-family="sans-serif" dy="1.5625" font-size="25" fill="#FFFFFF"/><text text-anchor="middle" pointer-events="none" y="5" font-size="10px" fill="#FFFFFF" font-family="sans-serif"> elixir</text></g><g class="node" transform="translate(-273.492555931981,133.2984288299449)"><circle class="outline" cx="0" cy="0" r="25" fill="#68BDF6" stroke="#5CA8DB" stroke-width="2px"/><text text-anchor="middle" pointer-events="none" font-family="sans-serif" dy="1.5625" font-size="25" fill="#FFFFFF"/><text text-anchor="middle" pointer-events="none" y="5" font-size="10px" fill="#FFFFFF" font-family="sans-serif"> erlang</text></g><g class="node" transform="translate(410.60645523433175,13.241603356949883)"><circle class="outline" cx="0" cy="0" r="25" fill="#68BDF6" stroke="#5CA8DB" stroke-width="2px"/><text text-anchor="middle" pointer-events="none" font-family="sans-serif" dy="1.5625" font-size="25" fill="#FFFFFF"/><text text-anchor="middle" pointer-events="none" y="5" font-size="10px" fill="#FFFFFF" font-family="sans-serif"> perl</text></g><g class="node" transform="translate(337.78120032904116,-84.56270821330668)"><circle class="outline" cx="0" cy="0" r="25" fill="#68BDF6" stroke="#5CA8DB" stroke-width="2px"/><text text-anchor="middle" pointer-events="none" font-family="sans-serif" dy="1.5625" font-size="25" fill="#FFFFFF"/><text text-anchor="middle" pointer-events="none" y="5" font-size="10px" fill="#FFFFFF" font-family="sans-serif"> c</text></g><g class="node" transform="translate(267.05019746202413,165.11967506655697)"><circle class="outline" cx="0" cy="0" r="25" fill="#68BDF6" stroke="#5CA8DB" stroke-width="2px"/><text text-anchor="middle" pointer-events="none" font-family="sans-serif" dy="1.5625" font-size="25" fill="#FFFFFF"/><text text-anchor="middle" pointer-events="none" y="5" font-size="10px" fill="#FFFFFF" font-family="sans-serif"> matlab</text></g><g class="node" transform="translate(375.4360874526936,111.63670500000136)"><circle class="outline" cx="0" cy="0" r="25" fill="#68BDF6" stroke="#5CA8DB" stroke-width="2px"/><text text-anchor="middle" pointer-events="none" font-family="sans-serif" dy="1.5625" font-size="25" fill="#FFFFFF"/><text text-anchor="middle" pointer-events="none" y="5" font-size="10px" fill="#FFFFFF" font-family="sans-serif"> php</text></g></g></svg>