<svg xmlns="http://www.w3.org/2000/svg" width="321.0426330566406" height="320.39080810546875" viewBox="-70.50850677490234 -50.70219802856445 321.0426330566406 320.39080810546875"><title>Neo4j Graph Visualization</title><desc>Created using Neo4j (http://www.neo4j.com/)</desc><g class="layer relationships"><g class="relationship" transform="translate(221.53412599418616 94.4991736802875) rotate(532.3438298298686)"><path class="outline" fill="#A5ABB6" stroke="none" d="M 25 0.5 L 44.897662703261275 0.5 L 44.897662703261275 -0.5 L 25 -0.5 Z M 82.90156895326128 0.5 L 102.79923165652255 0.5 L 102.79923165652255 3.5 L 109.79923165652255 0 L 102.79923165652255 -3.5 L 102.79923165652255 -0.5 L 82.90156895326128 -0.5 Z"/><text text-anchor="middle" pointer-events="none" font-size="8px" fill="#000000" x="63.899615828261275" y="3" transform="rotate(180 63.899615828261275 0)" font-family="sans-serif">TYPEOF</text></g><g class="relationship" transform="translate(201.1337002495991 38.0991000341284) rotate(506.69911545723863)"><path class="outline" fill="#A5ABB6" stroke="none" d="M 25 0.5 L 45.21596768606601 0.5 L 45.21596768606601 -0.5 L 25 -0.5 Z M 83.21987393606601 0.5 L 103.43584162213202 0.5 L 103.43584162213202 3.5 L 110.43584162213202 0 L 103.43584162213202 -3.5 L 103.43584162213202 -0.5 L 83.21987393606601 -0.5 Z"/><text text-anchor="middle" pointer-events="none" font-size="8px" fill="#000000" x="64.21792081106601" y="3" transform="rotate(180 64.21792081106601 0)" font-family="sans-serif">TYPEOF</text></g><g class="relationship" transform="translate(157.94000856443404 -3.555375111742965) rotate(481.1070829117696)"><path class="outline" fill="#A5ABB6" stroke="none" d="M 25 0.5 L 45.24691003455777 0.5 L 45.24691003455777 -0.5 L 25 -0.5 Z M 83.25081628455777 0.5 L 103.49772631911554 0.5 L 103.49772631911554 3.5 L 110.49772631911554 0 L 103.49772631911554 -3.5 L 103.49772631911554 -0.5 L 83.25081628455777 -0.5 Z"/><text text-anchor="middle" pointer-events="none" font-size="8px" fill="#000000" x="64.24886315955777" y="3" transform="rotate(180 64.24886315955777 0)" font-family="sans-serif">TYPEOF</text></g><g class="relationship" transform="translate(-12.602867011597876 22.695412128717305) rotate(401.7588550282394)"><path class="outline" fill="#A5ABB6" stroke="none" d="M 25 0.5 L 44.88784606742958 0.5 L 44.88784606742958 -0.5 L 25 -0.5 Z M 82.89175231742958 0.5 L 102.77959838485916 0.5 L 102.77959838485916 3.5 L 109.77959838485916 0 L 102.77959838485916 -3.5 L 102.77959838485916 -0.5 L 82.89175231742958 -0.5 Z"/><text text-anchor="middle" pointer-events="none" font-size="8px" fill="#000000" x="63.88979919242958" y="3" font-family="sans-serif">TYPEOF</text></g><g class="relationship" transform="translate(181.5120909377206 209.47643581863323) rotate(226.03482412664812)"><path class="outline" fill="#A5ABB6" stroke="none" d="M 25 0.5 L 44.89410089334366 0.5 L 44.89410089334366 -0.5 L 25 -0.5 Z M 82.89800714334366 0.5 L 102.79210803668732 0.5 L 102.79210803668732 3.5 L 109.79210803668732 0 L 102.79210803668732 -3.5 L 102.79210803668732 -0.5 L 82.89800714334366 -0.5 Z"/><text text-anchor="middle" pointer-events="none" font-size="8px" fill="#000000" x="63.89605401834366" y="3" transform="rotate(180 63.89605401834366 0)" font-family="sans-serif">TYPEOF</text></g><g class="relationship" transform="translate(-41.5085075824609 83.370596970077) rotate(372.66457310439154)"><path class="outline" fill="#A5ABB6" stroke="none" d="M 25 0.5 L 43.8345354640046 0.5 L 43.8345354640046 -0.5 L 25 -0.5 Z M 81.8384417140046 0.5 L 100.6729771780092 0.5 L 100.6729771780092 3.5 L 107.6729771780092 0 L 100.6729771780092 -3.5 L 100.6729771780092 -0.5 L 81.8384417140046 -0.5 Z"/><text text-anchor="middle" pointer-events="none" font-size="8px" fill="#000000" x="62.8364885890046" y="3" font-family="sans-serif">TYPEOF</text></g><g class="relationship" transform="translate(213.75989735956324 154.86599104522574) rotate(198.62599040430496)"><path class="outline" fill="#A5ABB6" stroke="none" d="M 25 0.5 L 43.886916368687466 0.5 L 43.886916368687466 -0.5 L 25 -0.5 Z M 81.89082261868747 0.5 L 100.77773898737493 0.5 L 100.77773898737493 3.5 L 107.77773898737493 0 L 100.77773898737493 -3.5 L 100.77773898737493 -0.5 L 81.89082261868747 -0.5 Z"/><text text-anchor="middle" pointer-events="none" font-size="8px" fill="#000000" x="62.888869493687466" y="3" transform="rotate(180 62.888869493687466 0)" font-family="sans-serif">TYPEOF</text></g><g class="relationship" transform="translate(40.73444685463413 -11.646159671044957) rotate(429.1760794732369)"><path class="outline" fill="#A5ABB6" stroke="none" d="M 25 0.5 L 43.886932805118136 0.5 L 43.886932805118136 -0.5 L 25 -0.5 Z M 81.89083905511814 0.5 L 100.77777186023627 0.5 L 100.77777186023627 3.5 L 107.77777186023627 0 L 100.77777186023627 -3.5 L 100.77777186023627 -0.5 L 81.89083905511814 -0.5 Z"/><text text-anchor="middle" pointer-events="none" font-size="8px" fill="#000000" x="62.888885930118136" y="3" font-family="sans-serif">TYPEOF</text></g><g class="relationship" transform="translate(122.00952619220438 240.68859892614756) rotate(255.11941163101687)"><path class="outline" fill="#A5ABB6" stroke="none" d="M 25 0.5 L 43.838075087048594 0.5 L 43.838075087048594 -0.5 L 25 -0.5 Z M 81.8419813370486 0.5 L 100.68005642409719 0.5 L 100.68005642409719 3.5 L 107.68005642409719 0 L 100.68005642409719 -3.5 L 100.68005642409719 -0.5 L 81.8419813370486 -0.5 Z"/><text text-anchor="middle" pointer-events="none" font-size="8px" fill="#000000" x="62.840028212048594" y="3" transform="rotate(180 62.840028212048594 0)" font-family="sans-serif">TYPEOF</text></g><g class="relationship" transform="translate(-4.718190403090124 208.78636620652787) rotate(313.88644425004645)"><path class="outline" fill="#A5ABB6" stroke="none" d="M 25 0.5 L 44.32621874479679 0.5 L 44.32621874479679 -0.5 L 25 -0.5 Z M 82.33012499479679 0.5 L 101.65634373959358 0.5 L 101.65634373959358 3.5 L 108.65634373959358 0 L 101.65634373959358 -3.5 L 101.65634373959358 -0.5 L 82.33012499479679 -0.5 Z"/><text text-anchor="middle" pointer-events="none" font-size="8px" fill="#000000" x="63.32817186979679" y="3" font-family="sans-serif">TYPEOF</text></g><g class="relationship" transform="translate(54.72626417302508 240.03217138440007) rotate(284.5914972077445)"><path class="outline" fill="#A5ABB6" stroke="none" d="M 25 0.5 L 43.410942183485076 0.5 L 43.410942183485076 -0.5 L 25 -0.5 Z M 81.41484843348508 0.5 L 99.82579061697015 0.5 L 99.82579061697015 3.5 L 106.82579061697015 0 L 99.82579061697015 -3.5 L 99.82579061697015 -0.5 L 81.41484843348508 -0.5 Z"/><text text-anchor="middle" pointer-events="none" font-size="8px" fill="#000000" x="62.412895308485076" y="3" font-family="sans-serif">TYPEOF</text></g><g class="relationship" transform="translate(-38.24677917772716 150.5964994761) rotate(343.18282192540164)"><path class="outline" fill="#A5ABB6" stroke="none" d="M 25 0.5 L 43.40853078694592 0.5 L 43.40853078694592 -0.5 L 25 -0.5 Z M 81.41243703694592 0.5 L 99.82096782389183 0.5 L 99.82096782389183 3.5 L 106.82096782389183 0 L 99.82096782389183 -3.5 L 99.82096782389183 -0.5 L 81.41243703694592 -0.5 Z"/><text text-anchor="middle" pointer-events="none" font-size="8px" fill="#000000" x="62.41048391194592" y="3" font-family="sans-serif">TYPEOF</text></g><g class="relationship" transform="translate(100.77489293748698 -21.702198598095652) rotate(455.46620548704624)"><path class="outline" fill="#A5ABB6" stroke="none" d="M 25 0.5 L 44.88469057548096 0.5 L 44.88469057548096 -0.5 L 25 -0.5 Z M 82.88859682548096 0.5 L 102.77328740096192 0.5 L 102.77328740096192 3.5 L 109.77328740096192 0 L 102.77328740096192 -3.5 L 102.77328740096192 -0.5 L 82.88859682548096 -0.5 Z"/><text text-anchor="middle" pointer-events="none" font-size="8px" fill="#000000" x="63.88664370048096" y="3" transform="rotate(180 63.88664370048096 0)" font-family="sans-serif">TYPEOF</text></g></g><g class="layer nodes"><g class="node" transform="translate(122.00952619220438,240.68859892614756)"><circle class="outline" cx="0" cy="0" r="25" fill="#68BDF6" stroke="#5CA8DB" stroke-width="2px"/><text text-anchor="middle" pointer-events="none" font-family="sans-serif" dy="1.5625" font-size="25" fill="#FFFFFF"/><text text-anchor="middle" pointer-events="none" y="5" font-size="10px" fill="#FFFFFF" font-family="sans-serif"> julia</text></g><g class="node" transform="translate(87.93657478489104,112.45821502632265)"><circle class="outline" cx="0" cy="0" r="25" fill="#FF756E" stroke="#E06760" stroke-width="2px"/><text text-anchor="middle" pointer-events="none" font-family="sans-serif" dy="1.5625" font-size="25" fill="#FFFFFF"/><text text-anchor="middle" pointer-events="none" y="5" font-size="10px" fill="#FFFFFF" font-family="sans-serif"> functional</text></g><g class="node" transform="translate(181.5120909377206,209.47643581863323)"><circle class="outline" cx="0" cy="0" r="25" fill="#68BDF6" stroke="#5CA8DB" stroke-width="2px"/><text text-anchor="middle" pointer-events="none" font-family="sans-serif" dy="1.5625" font-size="25" fill="#FFFFFF"/><text text-anchor="middle" pointer-events="none" y="5" font-size="10px" fill="#FFFFFF" font-family="sans-serif"> c++</text></g><g class="node" transform="translate(213.75989735956324,154.86599104522574)"><circle class="outline" cx="0" cy="0" r="25" fill="#68BDF6" stroke="#5CA8DB" stroke-width="2px"/><text text-anchor="middle" pointer-events="none" font-family="sans-serif" dy="1.5625" font-size="25" fill="#FFFFFF"/><text text-anchor="middle" pointer-events="none" y="5" font-size="10px" fill="#FFFFFF" font-family="sans-serif"> lua</text></g><g class="node" transform="translate(201.1337002495991,38.0991000341284)"><circle class="outline" cx="0" cy="0" r="25" fill="#68BDF6" stroke="#5CA8DB" stroke-width="2px"/><text text-anchor="middle" pointer-events="none" font-family="sans-serif" dy="1.5625" font-size="25" fill="#FFFFFF"/><text text-anchor="middle" pointer-events="none" y="5" font-size="10px" fill="#FFFFFF" font-family="sans-serif"> ocaml</text></g><g class="node" transform="translate(221.53412599418616,94.4991736802875)"><circle class="outline" cx="0" cy="0" r="25" fill="#68BDF6" stroke="#5CA8DB" stroke-width="2px"/><text text-anchor="middle" pointer-events="none" font-family="sans-serif" dy="1.5625" font-size="25" fill="#FFFFFF"/><text text-anchor="middle" pointer-events="none" y="5" font-size="10px" fill="#FFFFFF" font-family="sans-serif"> javascript</text></g><g class="node" transform="translate(157.94000856443404,-3.555375111742965)"><circle class="outline" cx="0" cy="0" r="25" fill="#68BDF6" stroke="#5CA8DB" stroke-width="2px"/><text text-anchor="middle" pointer-events="none" font-family="sans-serif" dy="1.5625" font-size="25" fill="#FFFFFF"/><text text-anchor="middle" pointer-events="none" y="5" font-size="10px" fill="#FFFFFF" font-family="sans-serif"> java</text></g><g class="node" transform="translate(100.77489293748698,-21.702198598095652)"><circle class="outline" cx="0" cy="0" r="25" fill="#68BDF6" stroke="#5CA8DB" stroke-width="2px"/><text text-anchor="middle" pointer-events="none" font-family="sans-serif" dy="1.5625" font-size="25" fill="#FFFFFF"/><text text-anchor="middle" pointer-events="none" y="5" font-size="10px" fill="#FFFFFF" font-family="sans-serif"> rust</text></g><g class="node" transform="translate(-12.602867011597876,22.695412128717305)"><circle class="outline" cx="0" cy="0" r="25" fill="#68BDF6" stroke="#5CA8DB" stroke-width="2px"/><text text-anchor="middle" pointer-events="none" font-family="sans-serif" dy="1.5625" font-size="25" fill="#FFFFFF"/><text text-anchor="middle" pointer-events="none" y="5" font-size="10px" fill="#FFFFFF" font-family="sans-serif"> haskell</text></g><g class="node" transform="translate(40.73444685463413,-11.646159671044957)"><circle class="outline" cx="0" cy="0" r="25" fill="#68BDF6" stroke="#5CA8DB" stroke-width="2px"/><text text-anchor="middle" pointer-events="none" font-family="sans-serif" dy="1.5625" font-size="25" fill="#FFFFFF"/><text text-anchor="middle" pointer-events="none" y="5" font-size="10px" fill="#FFFFFF" font-family="sans-serif"> r</text></g><g class="node" transform="translate(-41.5085075824609,83.370596970077)"><circle class="outline" cx="0" cy="0" r="25" fill="#68BDF6" stroke="#5CA8DB" stroke-width="2px"/><text text-anchor="middle" pointer-events="none" font-family="sans-serif" dy="1.5625" font-size="25" fill="#FFFFFF"/><text text-anchor="middle" pointer-events="none" y="5" font-size="10px" fill="#FFFFFF" font-family="sans-serif"> c#</text></g><g class="node" transform="translate(-4.718190403090124,208.78636620652787)"><circle class="outline" cx="0" cy="0" r="25" fill="#68BDF6" stroke="#5CA8DB" stroke-width="2px"/><text text-anchor="middle" pointer-events="none" font-family="sans-serif" dy="1.5625" font-size="25" fill="#FFFFFF"/><text text-anchor="middle" pointer-events="none" y="5" font-size="10px" fill="#FFFFFF" font-family="sans-serif"> python</text></g><g class="node" transform="translate(-38.24677917772716,150.5964994761)"><circle class="outline" cx="0" cy="0" r="25" fill="#68BDF6" stroke="#5CA8DB" stroke-width="2px"/><text text-anchor="middle" pointer-events="none" font-family="sans-serif" dy="1.5625" font-size="25" fill="#FFFFFF"/><text text-anchor="middle" pointer-events="none" y="5" font-size="10px" fill="#FFFFFF" font-family="sans-serif"> erlang</text></g><g class="node" transform="translate(54.72626417302508,240.03217138440007)"><circle class="outline" cx="0" cy="0" r="25" fill="#68BDF6" stroke="#5CA8DB" stroke-width="2px"/><text text-anchor="middle" pointer-events="none" font-family="sans-serif" dy="1.5625" font-size="25" fill="#FFFFFF"/><text text-anchor="middle" pointer-events="none" y="5" font-size="10px" fill="#FFFFFF" font-family="sans-serif"> elixir</text></g></g></svg>