<svg xmlns="http://www.w3.org/2000/svg" width="717.8270263671875" height="302.1794738769531" viewBox="-286.869384765625 -65.0870132446289 717.8270263671875 302.1794738769531"><title>Neo4j Graph Visualization</title><desc>Created using Neo4j (http://www.neo4j.com/)</desc><g class="layer relationships"><g class="relationship" transform="translate(116.42130016822222 147.6498353213018) rotate(193.28225652650622)"><path class="outline" fill="#A5ABB6" stroke="none" d="M 25 0.5 L 113.46790102495729 0.5 L 113.46790102495729 -0.5 L 25 -0.5 Z M 151.47180727495729 0.5 L 239.93970829991457 0.5 L 239.93970829991457 3.5 L 246.93970829991457 0 L 239.93970829991457 -3.5 L 239.93970829991457 -0.5 L 151.47180727495729 -0.5 Z"/><text text-anchor="middle" pointer-events="none" font-size="8px" fill="#000000" x="132.46985414995729" y="3" transform="rotate(180 132.46985414995729 0)" font-family="sans-serif">TYPEOF</text></g><g class="relationship" transform="translate(116.42130016822222 147.6498353213018) rotate(341.8558852324305)"><path class="outline" fill="#A5ABB6" stroke="none" d="M 25 0.5 L 73.35004092620818 0.5 L 73.35004092620818 -0.5 L 25 -0.5 Z M 111.35394717620818 0.5 L 159.70398810241636 0.5 L 159.70398810241636 3.5 L 166.70398810241636 0 L 159.70398810241636 -3.5 L 159.70398810241636 -0.5 L 111.35394717620818 -0.5 Z"/><text text-anchor="middle" pointer-events="none" font-size="8px" fill="#000000" x="92.35199405120818" y="3" font-family="sans-serif">TYPEOF</text></g><g class="relationship" transform="translate(116.96026829278014 27.731609232430724) rotate(527.7790884274094)"><path class="outline" fill="#A5ABB6" stroke="none" d="M 25 0.5 L 113.17481257485161 0.5 L 113.17481257485161 -0.5 L 25 -0.5 Z M 151.17871882485161 0.5 L 239.35353139970323 0.5 L 239.35353139970323 3.5 L 246.35353139970323 0 L 239.35353139970323 -3.5 L 239.35353139970323 -0.5 L 151.17871882485161 -0.5 Z"/><text text-anchor="middle" pointer-events="none" font-size="8px" fill="#000000" x="132.17676569985161" y="3" transform="rotate(180 132.17676569985161 0)" font-family="sans-serif">TYPEOF</text></g><g class="relationship" transform="translate(116.96026829278014 27.731609232430724) rotate(378.3428511560195)"><path class="outline" fill="#A5ABB6" stroke="none" d="M 25 0.5 L 73.17578543912262 0.5 L 73.17578543912262 -0.5 L 25 -0.5 Z M 111.17969168912262 0.5 L 159.35547712824524 0.5 L 159.35547712824524 3.5 L 166.35547712824524 0 L 159.35547712824524 -3.5 L 159.35547712824524 -0.5 L 111.17969168912262 -0.5 Z"/><text text-anchor="middle" pointer-events="none" font-size="8px" fill="#000000" x="92.17773856412262" y="3" font-family="sans-serif">TYPEOF</text></g><g class="relationship" transform="translate(65.20473010907065 -2.175055762986319) rotate(517.7447127678704)"><path class="outline" fill="#A5ABB6" stroke="none" d="M 25 0.5 L 92.81273497808029 0.5 L 92.81273497808029 -0.5 L 25 -0.5 Z M 130.8166412280803 0.5 L 198.62937620616057 0.5 L 198.62937620616057 3.5 L 205.62937620616057 0 L 198.62937620616057 -3.5 L 198.62937620616057 -0.5 L 130.8166412280803 -0.5 Z"/><text text-anchor="middle" pointer-events="none" font-size="8px" fill="#000000" x="111.81468810308029" y="3" transform="rotate(180 111.81468810308029 0)" font-family="sans-serif">TYPEOF</text></g><g class="relationship" transform="translate(65.20473010907065 -2.175055762986319) rotate(381.1148800183075)"><path class="outline" fill="#A5ABB6" stroke="none" d="M 25 0.5 L 102.59094050152956 0.5 L 102.59094050152956 -0.5 L 25 -0.5 Z M 140.59484675152956 0.5 L 218.18578725305912 0.5 L 218.18578725305912 3.5 L 225.18578725305912 0 L 218.18578725305912 -3.5 L 218.18578725305912 -0.5 L 140.59484675152956 -0.5 Z"/><text text-anchor="middle" pointer-events="none" font-size="8px" fill="#000000" x="121.59289362652956" y="3" font-family="sans-serif">TYPEOF</text></g><g class="relationship" transform="translate(65.09468198661176 57.60995512785912) rotate(367.4037514955568)"><path class="outline" fill="#A5ABB6" stroke="none" d="M 25 0.5 L 95.22878222314384 0.5 L 95.22878222314384 -0.5 L 25 -0.5 Z M 133.23268847314384 0.5 L 203.46147069628768 0.5 L 203.46147069628768 3.5 L 210.46147069628768 0 L 203.46147069628768 -3.5 L 203.46147069628768 -0.5 L 133.23268847314384 -0.5 Z"/><text text-anchor="middle" pointer-events="none" font-size="8px" fill="#000000" x="114.23073534814384" y="3" font-family="sans-serif">TYPEOF</text></g><g class="relationship" transform="translate(65.09468198661176 57.60995512785912) rotate(532.6384795520963)"><path class="outline" fill="#A5ABB6" stroke="none" d="M 25 0.5 L 85.05394386906976 0.5 L 85.05394386906976 -0.5 L 25 -0.5 Z M 123.05785011906976 0.5 L 183.1117939881395 0.5 L 183.1117939881395 3.5 L 190.1117939881395 0 L 183.1117939881395 -3.5 L 183.1117939881395 -0.5 L 123.05785011906976 -0.5 Z"/><text text-anchor="middle" pointer-events="none" font-size="8px" fill="#000000" x="104.05589699406976" y="3" transform="rotate(180 104.05589699406976 0)" font-family="sans-serif">TYPEOF</text></g><g class="relationship" transform="translate(116.8724761846852 87.67284827403492) rotate(360.08790322215)"><path class="outline" fill="#A5ABB6" stroke="none" d="M 25 0.5 L 68.35843880396523 0.5 L 68.35843880396523 -0.5 L 25 -0.5 Z M 106.36234505396523 0.5 L 149.72078385793046 0.5 L 149.72078385793046 3.5 L 156.72078385793046 0 L 149.72078385793046 -3.5 L 149.72078385793046 -0.5 L 106.36234505396523 -0.5 Z"/><text text-anchor="middle" pointer-events="none" font-size="8px" fill="#000000" x="87.36039192896523" y="3" font-family="sans-serif">TYPEOF</text></g><g class="relationship" transform="translate(116.8724761846852 87.67284827403492) rotate(180.5404265730076)"><path class="outline" fill="#A5ABB6" stroke="none" d="M 25 0.5 L 110.06220159514069 0.5 L 110.06220159514069 -0.5 L 25 -0.5 Z M 148.0661078451407 0.5 L 233.12830944028138 0.5 L 233.12830944028138 3.5 L 240.12830944028138 0 L 233.12830944028138 -3.5 L 233.12830944028138 -0.5 L 148.0661078451407 -0.5 Z"/><text text-anchor="middle" pointer-events="none" font-size="8px" fill="#000000" x="129.0641547201407" y="3" transform="rotate(180 129.0641547201407 0)" font-family="sans-serif">TYPEOF</text></g><g class="relationship" transform="translate(64.32844016127389 177.23076901798783) rotate(339.13796762371226)"><path class="outline" fill="#A5ABB6" stroke="none" d="M 25 0.5 L 102.84822411952996 0.5 L 102.84822411952996 -0.5 L 25 -0.5 Z M 140.85213036952996 0.5 L 218.70035448905992 0.5 L 218.70035448905992 3.5 L 225.70035448905992 0 L 218.70035448905992 -3.5 L 218.70035448905992 -0.5 L 140.85213036952996 -0.5 Z"/><text text-anchor="middle" pointer-events="none" font-size="8px" fill="#000000" x="121.85017724452996" y="3" font-family="sans-serif">TYPEOF</text></g><g class="relationship" transform="translate(64.32844016127389 177.23076901798783) rotate(203.4159592908935)"><path class="outline" fill="#A5ABB6" stroke="none" d="M 25 0.5 L 93.32318559221908 0.5 L 93.32318559221908 -0.5 L 25 -0.5 Z M 131.3270918422191 0.5 L 199.65027743443815 0.5 L 199.65027743443815 3.5 L 206.65027743443815 0 L 199.65027743443815 -3.5 L 199.65027743443815 -0.5 L 131.3270918422191 -0.5 Z"/><text text-anchor="middle" pointer-events="none" font-size="8px" fill="#000000" x="112.32513871721908" y="3" transform="rotate(180 112.32513871721908 0)" font-family="sans-serif">TYPEOF</text></g><g class="relationship" transform="translate(64.8627147261729 117.36152615468141) rotate(352.82826248678316)"><path class="outline" fill="#A5ABB6" stroke="none" d="M 25 0.5 L 95.28472798831648 0.5 L 95.28472798831648 -0.5 L 25 -0.5 Z M 133.2886342383165 0.5 L 203.57336222663295 0.5 L 203.57336222663295 3.5 L 210.57336222663295 0 L 203.57336222663295 -3.5 L 203.57336222663295 -0.5 L 133.2886342383165 -0.5 Z"/><text text-anchor="middle" pointer-events="none" font-size="8px" fill="#000000" x="114.28668111331648" y="3" font-family="sans-serif">TYPEOF</text></g><g class="relationship" transform="translate(64.8627147261729 117.36152615468141) rotate(188.58949204798898)"><path class="outline" fill="#A5ABB6" stroke="none" d="M 25 0.5 L 85.26010600094048 0.5 L 85.26010600094048 -0.5 L 25 -0.5 Z M 123.26401225094048 0.5 L 183.52411825188096 0.5 L 183.52411825188096 3.5 L 190.52411825188096 0 L 183.52411825188096 -3.5 L 183.52411825188096 -0.5 L 123.26401225094048 -0.5 Z"/><text text-anchor="middle" pointer-events="none" font-size="8px" fill="#000000" x="104.26205912594048" y="3" transform="rotate(180 104.26205912594048 0)" font-family="sans-serif">TYPEOF</text></g><g class="relationship" transform="translate(13.449038035210434 87.3855494452681) rotate(360.1137488531222)"><path class="outline" fill="#A5ABB6" stroke="none" d="M 25 0.5 L 120.07033191241155 0.5 L 120.07033191241155 -0.5 L 25 -0.5 Z M 158.07423816241155 0.5 L 253.1445700748231 0.5 L 253.1445700748231 3.5 L 260.1445700748231 0 L 253.1445700748231 -3.5 L 253.1445700748231 -0.5 L 158.07423816241155 -0.5 Z"/><text text-anchor="middle" pointer-events="none" font-size="8px" fill="#000000" x="139.07228503741155" y="3" font-family="sans-serif">TYPEOF</text></g><g class="relationship" transform="translate(13.449038035210434 87.3855494452681) rotate(180.78427184453415)"><path class="outline" fill="#A5ABB6" stroke="none" d="M 25 0.5 L 58.352160146441406 0.5 L 58.352160146441406 -0.5 L 25 -0.5 Z M 96.3560663964414 0.5 L 129.7082265428828 0.5 L 129.7082265428828 3.5 L 136.7082265428828 0 L 129.7082265428828 -3.5 L 129.7082265428828 -0.5 L 96.3560663964414 -0.5 Z"/><text text-anchor="middle" pointer-events="none" font-size="8px" fill="#000000" x="77.3541132714414" y="3" transform="rotate(180 77.3541132714414 0)" font-family="sans-serif">TYPEOF</text></g><g class="relationship" transform="translate(401.957613893916 39.725209436053774) rotate(514.9878239098823)"><path class="outline" fill="#A5ABB6" stroke="none" d="M 25 0.5 L 34.52879051313227 0.5 L 34.52879051313227 -0.5 L 25 -0.5 Z M 72.53269676313226 0.5 L 82.06148727626454 0.5 L 82.06148727626454 3.5 L 89.06148727626454 0 L 82.06148727626454 -3.5 L 82.06148727626454 -0.5 L 72.53269676313226 -0.5 Z"/><text text-anchor="middle" pointer-events="none" font-size="8px" fill="#000000" x="53.53074363813227" y="3" transform="rotate(180 53.53074363813227 0)" font-family="sans-serif">TYPEOF</text></g><g class="relationship" transform="translate(398.0886189790647 147.4865570392012) rotate(210.89492911785055)"><path class="outline" fill="#A5ABB6" stroke="none" d="M 25 0.5 L 35.47169356200517 0.5 L 35.47169356200517 -0.5 L 25 -0.5 Z M 73.47559981200517 0.5 L 83.94729337401034 0.5 L 83.94729337401034 3.5 L 90.94729337401034 0 L 83.94729337401034 -3.5 L 83.94729337401034 -0.5 L 73.47559981200517 -0.5 Z"/><text text-anchor="middle" pointer-events="none" font-size="8px" fill="#000000" x="54.47364668700517" y="3" transform="rotate(180 54.47364668700517 0)" font-family="sans-serif">TYPEOF</text></g><g class="relationship" transform="translate(322.5466895400722 -27.846679289190167) rotate(461.6871720908511)"><path class="outline" fill="#A5ABB6" stroke="none" d="M 25 0.5 L 36.62297558222609 0.5 L 36.62297558222609 -0.5 L 25 -0.5 Z M 74.62688183222609 0.5 L 86.24985741445218 0.5 L 86.24985741445218 3.5 L 93.24985741445218 0 L 86.24985741445218 -3.5 L 86.24985741445218 -0.5 L 74.62688183222609 -0.5 Z"/><text text-anchor="middle" pointer-events="none" font-size="8px" fill="#000000" x="55.62492870722609" y="3" transform="rotate(180 55.62492870722609 0)" font-family="sans-serif">TYPEOF</text></g><g class="relationship" transform="translate(319.44036169761665 208.09245114714452) rotate(260.1558296276477)"><path class="outline" fill="#A5ABB6" stroke="none" d="M 25 0.5 L 38.46612055298814 0.5 L 38.46612055298814 -0.5 L 25 -0.5 Z M 76.47002680298814 0.5 L 89.93614735597627 0.5 L 89.93614735597627 3.5 L 96.93614735597627 0 L 89.93614735597627 -3.5 L 89.93614735597627 -0.5 L 76.47002680298814 -0.5 Z"/><text text-anchor="middle" pointer-events="none" font-size="8px" fill="#000000" x="57.46807367798814" y="3" transform="rotate(180 57.46807367798814 0)" font-family="sans-serif">TYPEOF</text></g><g class="relationship" transform="translate(-202.28105978706537 191.23505645050994) rotate(296.9979684456275)"><path class="outline" fill="#A5ABB6" stroke="none" d="M 25 0.5 L 37.01557087613948 0.5 L 37.01557087613948 -0.5 L 25 -0.5 Z M 75.01947712613948 0.5 L 87.03504800227896 0.5 L 87.03504800227896 3.5 L 94.03504800227896 0 L 87.03504800227896 -3.5 L 87.03504800227896 -0.5 L 75.01947712613948 -0.5 Z"/><text text-anchor="middle" pointer-events="none" font-size="8px" fill="#000000" x="56.01752400113948" y="3" font-family="sans-serif">TYPEOF</text></g><g class="relationship" transform="translate(-122.82196166402196 206.97117280764695) rotate(258.21039745448604)"><path class="outline" fill="#A5ABB6" stroke="none" d="M 25 0.5 L 39.709957733163 0.5 L 39.709957733163 -0.5 L 25 -0.5 Z M 77.71386398316301 0.5 L 92.423821716326 0.5 L 92.423821716326 3.5 L 99.423821716326 0 L 92.423821716326 -3.5 L 92.423821716326 -0.5 L 77.71386398316301 -0.5 Z"/><text text-anchor="middle" pointer-events="none" font-size="8px" fill="#000000" x="58.711910858163" y="3" transform="rotate(180 58.711910858163 0)" font-family="sans-serif">TYPEOF</text></g><g class="relationship" transform="translate(-131.43803475918475 -36.08701223174592) rotate(457.8906852916646)"><path class="outline" fill="#A5ABB6" stroke="none" d="M 25 0.5 L 38.707161445580766 0.5 L 38.707161445580766 -0.5 L 25 -0.5 Z M 76.71106769558077 0.5 L 90.41822914116153 0.5 L 90.41822914116153 3.5 L 97.41822914116153 0 L 90.41822914116153 -3.5 L 90.41822914116153 -0.5 L 76.71106769558077 -0.5 Z"/><text text-anchor="middle" pointer-events="none" font-size="8px" fill="#000000" x="57.709114570580766" y="3" transform="rotate(180 57.709114570580766 0)" font-family="sans-serif">TYPEOF</text></g><g class="relationship" transform="translate(-216.15698376672 -8.293336543270927) rotate(413.99747095294424)"><path class="outline" fill="#A5ABB6" stroke="none" d="M 25 0.5 L 35.26473829935468 0.5 L 35.26473829935468 -0.5 L 25 -0.5 Z M 73.26864454935469 0.5 L 83.53338284870937 0.5 L 83.53338284870937 3.5 L 90.53338284870937 0 L 83.53338284870937 -3.5 L 83.53338284870937 -0.5 L 73.26864454935469 -0.5 Z"/><text text-anchor="middle" pointer-events="none" font-size="8px" fill="#000000" x="54.26669142435468" y="3" font-family="sans-serif">TYPEOF</text></g><g class="relationship" transform="translate(-257.8693998009601 101.65817262524556) rotate(351.44764842909603)"><path class="outline" fill="#A5ABB6" stroke="none" d="M 25 0.5 L 32.927075862836574 0.5 L 32.927075862836574 -0.5 L 25 -0.5 Z M 70.93098211283657 0.5 L 78.85805797567315 0.5 L 78.85805797567315 3.5 L 85.85805797567315 0 L 78.85805797567315 -3.5 L 78.85805797567315 -0.5 L 70.93098211283657 -0.5 Z"/><text text-anchor="middle" pointer-events="none" font-size="8px" fill="#000000" x="51.929028987836574" y="3" font-family="sans-serif">TYPEOF</text></g></g><g class="layer nodes"><g class="node" transform="translate(64.32844016127389,177.23076901798783)"><circle class="outline" cx="0" cy="0" r="25" fill="#68BDF6" stroke="#5CA8DB" stroke-width="2px"/><text text-anchor="middle" pointer-events="none" font-family="sans-serif" dy="1.5625" font-size="25" fill="#FFFFFF"/><text text-anchor="middle" pointer-events="none" y="5" font-size="10px" fill="#FFFFFF" font-family="sans-serif"> julia</text></g><g class="node" transform="translate(-148.24403953016062,85.17213599920557)"><circle class="outline" cx="0" cy="0" r="25" fill="#FF756E" stroke="#E06760" stroke-width="2px"/><text text-anchor="middle" pointer-events="none" font-family="sans-serif" dy="1.5625" font-size="25" fill="#FFFFFF"/><text text-anchor="middle" pointer-events="none" y="5" font-size="10px" fill="#FFFFFF" font-family="sans-serif"> functional</text></g><g class="node" transform="translate(298.59304617804446,87.95164430931042)"><circle class="outline" cx="0" cy="0" r="25" fill="#FF756E" stroke="#E06760" stroke-width="2px"/><text text-anchor="middle" pointer-events="none" font-family="sans-serif" dy="1.5625" font-size="25" fill="#FFFFFF"/><text text-anchor="middle" pointer-events="none" y="5" font-size="10px" fill="#FFFFFF" font-family="sans-serif"> imperative</text></g><g class="node" transform="translate(116.8724761846852,87.67284827403492)"><circle class="outline" cx="0" cy="0" r="25" fill="#68BDF6" stroke="#5CA8DB" stroke-width="2px"/><text text-anchor="middle" pointer-events="none" font-family="sans-serif" dy="1.5625" font-size="25" fill="#FFFFFF"/><text text-anchor="middle" pointer-events="none" y="5" font-size="10px" fill="#FFFFFF" font-family="sans-serif"> lua</text></g><g class="node" transform="translate(116.96026829278014,27.731609232430724)"><circle class="outline" cx="0" cy="0" r="25" fill="#68BDF6" stroke="#5CA8DB" stroke-width="2px"/><text text-anchor="middle" pointer-events="none" font-family="sans-serif" dy="1.5625" font-size="25" fill="#FFFFFF"/><text text-anchor="middle" pointer-events="none" y="5" font-size="10px" fill="#FFFFFF" font-family="sans-serif"> ocaml</text></g><g class="node" transform="translate(116.42130016822222,147.6498353213018)"><circle class="outline" cx="0" cy="0" r="25" fill="#68BDF6" stroke="#5CA8DB" stroke-width="2px"/><text text-anchor="middle" pointer-events="none" font-family="sans-serif" dy="1.5625" font-size="25" fill="#FFFFFF"/><text text-anchor="middle" pointer-events="none" y="5" font-size="10px" fill="#FFFFFF" font-family="sans-serif"> javascript</text></g><g class="node" transform="translate(13.449038035210434,87.3855494452681)"><circle class="outline" cx="0" cy="0" r="25" fill="#68BDF6" stroke="#5CA8DB" stroke-width="2px"/><text text-anchor="middle" pointer-events="none" font-family="sans-serif" dy="1.5625" font-size="25" fill="#FFFFFF"/><text text-anchor="middle" pointer-events="none" y="5" font-size="10px" fill="#FFFFFF" font-family="sans-serif"> rust</text></g><g class="node" transform="translate(65.09468198661176,57.60995512785912)"><circle class="outline" cx="0" cy="0" r="25" fill="#68BDF6" stroke="#5CA8DB" stroke-width="2px"/><text text-anchor="middle" pointer-events="none" font-family="sans-serif" dy="1.5625" font-size="25" fill="#FFFFFF"/><text text-anchor="middle" pointer-events="none" y="5" font-size="10px" fill="#FFFFFF" font-family="sans-serif"> c#</text></g><g class="node" transform="translate(65.20473010907065,-2.175055762986319)"><circle class="outline" cx="0" cy="0" r="25" fill="#68BDF6" stroke="#5CA8DB" stroke-width="2px"/><text text-anchor="middle" pointer-events="none" font-family="sans-serif" dy="1.5625" font-size="25" fill="#FFFFFF"/><text text-anchor="middle" pointer-events="none" y="5" font-size="10px" fill="#FFFFFF" font-family="sans-serif"> java</text></g><g class="node" transform="translate(64.8627147261729,117.36152615468141)"><circle class="outline" cx="0" cy="0" r="25" fill="#68BDF6" stroke="#5CA8DB" stroke-width="2px"/><text text-anchor="middle" pointer-events="none" font-family="sans-serif" dy="1.5625" font-size="25" fill="#FFFFFF"/><text text-anchor="middle" pointer-events="none" y="5" font-size="10px" fill="#FFFFFF" font-family="sans-serif"> python</text></g><g class="node" transform="translate(401.957613893916,39.725209436053774)"><circle class="outline" cx="0" cy="0" r="25" fill="#68BDF6" stroke="#5CA8DB" stroke-width="2px"/><text text-anchor="middle" pointer-events="none" font-family="sans-serif" dy="1.5625" font-size="25" fill="#FFFFFF"/><text text-anchor="middle" pointer-events="none" y="5" font-size="10px" fill="#FFFFFF" font-family="sans-serif"> perl</text></g><g class="node" transform="translate(398.0886189790647,147.4865570392012)"><circle class="outline" cx="0" cy="0" r="25" fill="#68BDF6" stroke="#5CA8DB" stroke-width="2px"/><text text-anchor="middle" pointer-events="none" font-family="sans-serif" dy="1.5625" font-size="25" fill="#FFFFFF"/><text text-anchor="middle" pointer-events="none" y="5" font-size="10px" fill="#FFFFFF" font-family="sans-serif"> c</text></g><g class="node" transform="translate(322.5466895400722,-27.846679289190167)"><circle class="outline" cx="0" cy="0" r="25" fill="#68BDF6" stroke="#5CA8DB" stroke-width="2px"/><text text-anchor="middle" pointer-events="none" font-family="sans-serif" dy="1.5625" font-size="25" fill="#FFFFFF"/><text text-anchor="middle" pointer-events="none" y="5" font-size="10px" fill="#FFFFFF" font-family="sans-serif"> matlab</text></g><g class="node" transform="translate(319.44036169761665,208.09245114714452)"><circle class="outline" cx="0" cy="0" r="25" fill="#68BDF6" stroke="#5CA8DB" stroke-width="2px"/><text text-anchor="middle" pointer-events="none" font-family="sans-serif" dy="1.5625" font-size="25" fill="#FFFFFF"/><text text-anchor="middle" pointer-events="none" y="5" font-size="10px" fill="#FFFFFF" font-family="sans-serif"> php</text></g><g class="node" transform="translate(-202.28105978706537,191.23505645050994)"><circle class="outline" cx="0" cy="0" r="25" fill="#68BDF6" stroke="#5CA8DB" stroke-width="2px"/><text text-anchor="middle" pointer-events="none" font-family="sans-serif" dy="1.5625" font-size="25" fill="#FFFFFF"/><text text-anchor="middle" pointer-events="none" y="5" font-size="10px" fill="#FFFFFF" font-family="sans-serif"> haskell</text></g><g class="node" transform="translate(-122.82196166402196,206.97117280764695)"><circle class="outline" cx="0" cy="0" r="25" fill="#68BDF6" stroke="#5CA8DB" stroke-width="2px"/><text text-anchor="middle" pointer-events="none" font-family="sans-serif" dy="1.5625" font-size="25" fill="#FFFFFF"/><text text-anchor="middle" pointer-events="none" y="5" font-size="10px" fill="#FFFFFF" font-family="sans-serif"> c++</text></g><g class="node" transform="translate(-131.43803475918475,-36.08701223174592)"><circle class="outline" cx="0" cy="0" r="25" fill="#68BDF6" stroke="#5CA8DB" stroke-width="2px"/><text text-anchor="middle" pointer-events="none" font-family="sans-serif" dy="1.5625" font-size="25" fill="#FFFFFF"/><text text-anchor="middle" pointer-events="none" y="5" font-size="10px" fill="#FFFFFF" font-family="sans-serif"> r</text></g><g class="node" transform="translate(-216.15698376672,-8.293336543270927)"><circle class="outline" cx="0" cy="0" r="25" fill="#68BDF6" stroke="#5CA8DB" stroke-width="2px"/><text text-anchor="middle" pointer-events="none" font-family="sans-serif" dy="1.5625" font-size="25" fill="#FFFFFF"/><text text-anchor="middle" pointer-events="none" y="5" font-size="10px" fill="#FFFFFF" font-family="sans-serif"> elixir</text></g><g class="node" transform="translate(-257.8693998009601,101.65817262524556)"><circle class="outline" cx="0" cy="0" r="25" fill="#68BDF6" stroke="#5CA8DB" stroke-width="2px"/><text text-anchor="middle" pointer-events="none" font-family="sans-serif" dy="1.5625" font-size="25" fill="#FFFFFF"/><text text-anchor="middle" pointer-events="none" y="5" font-size="10px" fill="#FFFFFF" font-family="sans-serif"> erlang</text></g></g></svg>