<svg xmlns="http://www.w3.org/2000/svg" width="698.6753540039062" height="304.6502380371094" viewBox="-278.19891357421875 -51.228416442871094 698.6753540039062 304.6502380371094"><title>Neo4j Graph Visualization</title><desc>Created using Neo4j (http://www.neo4j.com/)</desc><g class="layer relationships"><g class="relationship" transform="translate(74.28292670008224 86.64498670606935) rotate(536.0188347141343)"><path class="outline" fill="#A5ABB6" stroke="none" d="M 25 0.5 L 84.07769429620363 0.5 L 84.07769429620363 -0.5 L 25 -0.5 Z M 122.08160054620363 0.5 L 181.15929484240726 0.5 L 181.15929484240726 3.5 L 188.15929484240726 0 L 181.15929484240726 -3.5 L 181.15929484240726 -0.5 L 122.08160054620363 -0.5 Z"/><text text-anchor="middle" pointer-events="none" font-size="8px" fill="#000000" x="103.07964742120363" y="3" transform="rotate(180 103.07964742120363 0)" font-family="sans-serif">TYPEOF</text></g><g class="relationship" transform="translate(74.28292670008224 86.64498670606935) rotate(363.55554961487957)"><path class="outline" fill="#A5ABB6" stroke="none" d="M 25 0.5 L 79.37258252170116 0.5 L 79.37258252170116 -0.5 L 25 -0.5 Z M 117.37648877170116 0.5 L 171.74907129340232 0.5 L 171.74907129340232 3.5 L 178.74907129340232 0 L 171.74907129340232 -3.5 L 171.74907129340232 -0.5 L 117.37648877170116 -0.5 Z"/><text text-anchor="middle" pointer-events="none" font-size="8px" fill="#000000" x="98.37453564670116" y="3" font-family="sans-serif">TYPEOF</text></g><g class="relationship" transform="translate(133.9930928084569 88.30893193908112) rotate(537.2388255270328)"><path class="outline" fill="#A5ABB6" stroke="none" d="M 25 0.5 L 113.83387740944355 0.5 L 113.83387740944355 -0.5 L 25 -0.5 Z M 151.83778365944355 0.5 L 240.6716610688871 0.5 L 240.6716610688871 3.5 L 247.6716610688871 0 L 240.6716610688871 -3.5 L 240.6716610688871 -0.5 L 151.83778365944355 -0.5 Z"/><text text-anchor="middle" pointer-events="none" font-size="8px" fill="#000000" x="132.83583053444355" y="3" transform="rotate(180 132.83583053444355 0)" font-family="sans-serif">TYPEOF</text></g><g class="relationship" transform="translate(133.9930928084569 88.30893193908112) rotate(364.3677976527139)"><path class="outline" fill="#A5ABB6" stroke="none" d="M 25 0.5 L 49.53060856641109 0.5 L 49.53060856641109 -0.5 L 25 -0.5 Z M 87.53451481641109 0.5 L 112.06512338282218 0.5 L 112.06512338282218 3.5 L 119.06512338282218 0 L 112.06512338282218 -3.5 L 112.06512338282218 -0.5 L 87.53451481641109 -0.5 Z"/><text text-anchor="middle" pointer-events="none" font-size="8px" fill="#000000" x="68.53256169141109" y="3" font-family="sans-serif">TYPEOF</text></g><g class="relationship" transform="translate(102.65739223449148 139.4398521409956) rotate(347.0742441621859)"><path class="outline" fill="#A5ABB6" stroke="none" d="M 25 0.5 L 67.26385487294799 0.5 L 67.26385487294799 -0.5 L 25 -0.5 Z M 105.26776112294799 0.5 L 147.53161599589598 0.5 L 147.53161599589598 3.5 L 154.53161599589598 0 L 147.53161599589598 -3.5 L 147.53161599589598 -0.5 L 105.26776112294799 -0.5 Z"/><text text-anchor="middle" pointer-events="none" font-size="8px" fill="#000000" x="86.26580799794799" y="3" font-family="sans-serif">TYPEOF</text></g><g class="relationship" transform="translate(102.65739223449148 139.4398521409956) rotate(188.95867087834017)"><path class="outline" fill="#A5ABB6" stroke="none" d="M 25 0.5 L 99.49600493573283 0.5 L 99.49600493573283 -0.5 L 25 -0.5 Z M 137.49991118573283 0.5 L 211.99591612146565 0.5 L 211.99591612146565 3.5 L 218.99591612146565 0 L 211.99591612146565 -3.5 L 211.99591612146565 -0.5 L 137.49991118573283 -0.5 Z"/><text text-anchor="middle" pointer-events="none" font-size="8px" fill="#000000" x="118.49795806073283" y="3" transform="rotate(180 118.49795806073283 0)" font-family="sans-serif">TYPEOF</text></g><g class="relationship" transform="translate(105.78257793838388 35.45589515471061) rotate(524.87524692395)"><path class="outline" fill="#A5ABB6" stroke="none" d="M 25 0.5 L 103.9506541779619 0.5 L 103.9506541779619 -0.5 L 25 -0.5 Z M 141.9545604279619 0.5 L 220.9052146059238 0.5 L 220.9052146059238 3.5 L 227.9052146059238 0 L 220.9052146059238 -3.5 L 220.9052146059238 -0.5 L 141.9545604279619 -0.5 Z"/><text text-anchor="middle" pointer-events="none" font-size="8px" fill="#000000" x="122.9526073029619" y="3" transform="rotate(180 122.9526073029619 0)" font-family="sans-serif">TYPEOF</text></g><g class="relationship" transform="translate(105.78257793838388 35.45589515471061) rotate(380.3741364746769)"><path class="outline" fill="#A5ABB6" stroke="none" d="M 25 0.5 L 69.16117789458686 0.5 L 69.16117789458686 -0.5 L 25 -0.5 Z M 107.16508414458686 0.5 L 151.3262620391737 0.5 L 151.3262620391737 3.5 L 158.3262620391737 0 L 151.3262620391737 -3.5 L 151.3262620391737 -0.5 L 107.16508414458686 -0.5 Z"/><text text-anchor="middle" pointer-events="none" font-size="8px" fill="#000000" x="88.16313101958686" y="3" font-family="sans-serif">TYPEOF</text></g><g class="relationship" transform="translate(42.893618414868 137.65870302218067) rotate(350.7150222225455)"><path class="outline" fill="#A5ABB6" stroke="none" d="M 25 0.5 L 96.42937453751244 0.5 L 96.42937453751244 -0.5 L 25 -0.5 Z M 134.43328078751244 0.5 L 205.8626553250249 0.5 L 205.8626553250249 3.5 L 212.8626553250249 0 L 205.8626553250249 -3.5 L 205.8626553250249 -0.5 L 134.43328078751244 -0.5 Z"/><text text-anchor="middle" pointer-events="none" font-size="8px" fill="#000000" x="115.43132766251244" y="3" font-family="sans-serif">TYPEOF</text></g><g class="relationship" transform="translate(42.893618414868 137.65870302218067) rotate(191.29876305758057)"><path class="outline" fill="#A5ABB6" stroke="none" d="M 25 0.5 L 69.91703848783949 0.5 L 69.91703848783949 -0.5 L 25 -0.5 Z M 107.92094473783949 0.5 L 152.83798322567898 0.5 L 152.83798322567898 3.5 L 159.83798322567898 0 L 152.83798322567898 -3.5 L 152.83798322567898 -0.5 L 107.92094473783949 -0.5 Z"/><text text-anchor="middle" pointer-events="none" font-size="8px" fill="#000000" x="88.91899161283949" y="3" transform="rotate(180 88.91899161283949 0)" font-family="sans-serif">TYPEOF</text></g><g class="relationship" transform="translate(46.08325275306444 33.66177208409968) rotate(519.8219144651291)"><path class="outline" fill="#A5ABB6" stroke="none" d="M 25 0.5 L 75.75094199758308 0.5 L 75.75094199758308 -0.5 L 25 -0.5 Z M 113.75484824758308 0.5 L 164.50579024516617 0.5 L 164.50579024516617 3.5 L 171.50579024516617 0 L 164.50579024516617 -3.5 L 164.50579024516617 -0.5 L 113.75484824758308 -0.5 Z"/><text text-anchor="middle" pointer-events="none" font-size="8px" fill="#000000" x="94.75289512258308" y="3" transform="rotate(180 94.75289512258308 0)" font-family="sans-serif">TYPEOF</text></g><g class="relationship" transform="translate(46.08325275306444 33.66177208409968) rotate(375.8217757436845)"><path class="outline" fill="#A5ABB6" stroke="none" d="M 25 0.5 L 97.83537217131357 0.5 L 97.83537217131357 -0.5 L 25 -0.5 Z M 135.83927842131357 0.5 L 208.67465059262713 0.5 L 208.67465059262713 3.5 L 215.67465059262713 0 L 208.67465059262713 -3.5 L 208.67465059262713 -0.5 L 135.83927842131357 -0.5 Z"/><text text-anchor="middle" pointer-events="none" font-size="8px" fill="#000000" x="116.83732529631357" y="3" font-family="sans-serif">TYPEOF</text></g><g class="relationship" transform="translate(71.2471658989374 190.3529343324672) rotate(202.98489627894264)"><path class="outline" fill="#A5ABB6" stroke="none" d="M 25 0.5 L 91.34085819680773 0.5 L 91.34085819680773 -0.5 L 25 -0.5 Z M 129.34476444680774 0.5 L 195.68562264361546 0.5 L 195.68562264361546 3.5 L 202.68562264361546 0 L 195.68562264361546 -3.5 L 195.68562264361546 -0.5 L 129.34476444680774 -0.5 Z"/><text text-anchor="middle" pointer-events="none" font-size="8px" fill="#000000" x="110.34281132180773" y="3" transform="rotate(180 110.34281132180773 0)" font-family="sans-serif">TYPEOF</text></g><g class="relationship" transform="translate(71.2471658989374 190.3529343324672) rotate(336.1901942705224)"><path class="outline" fill="#A5ABB6" stroke="none" d="M 25 0.5 L 90.29439979511092 0.5 L 90.29439979511092 -0.5 L 25 -0.5 Z M 128.2983060451109 0.5 L 193.59270584022184 0.5 L 193.59270584022184 3.5 L 200.59270584022184 0 L 193.59270584022184 -3.5 L 193.59270584022184 -0.5 L 128.2983060451109 -0.5 Z"/><text text-anchor="middle" pointer-events="none" font-size="8px" fill="#000000" x="109.29635292011092" y="3" font-family="sans-serif">TYPEOF</text></g><g class="relationship" transform="translate(14.812260443360373 84.74854071122728) rotate(363.16476130971427)"><path class="outline" fill="#A5ABB6" stroke="none" d="M 25 0.5 L 109.11254587587058 0.5 L 109.11254587587058 -0.5 L 25 -0.5 Z M 147.11645212587058 0.5 L 231.22899800174116 0.5 L 231.22899800174116 3.5 L 238.22899800174116 0 L 231.22899800174116 -3.5 L 231.22899800174116 -0.5 L 147.11645212587058 -0.5 Z"/><text text-anchor="middle" pointer-events="none" font-size="8px" fill="#000000" x="128.11449900087058" y="3" font-family="sans-serif">TYPEOF</text></g><g class="relationship" transform="translate(14.812260443360373 84.74854071122728) rotate(533.779395713042)"><path class="outline" fill="#A5ABB6" stroke="none" d="M 25 0.5 L 54.53878785009209 0.5 L 54.53878785009209 -0.5 L 25 -0.5 Z M 92.54269410009209 0.5 L 122.08148195018418 0.5 L 122.08148195018418 3.5 L 129.08148195018418 0 L 122.08148195018418 -3.5 L 122.08148195018418 -0.5 L 92.54269410009209 -0.5 Z"/><text text-anchor="middle" pointer-events="none" font-size="8px" fill="#000000" x="73.54074097509209" y="3" transform="rotate(180 73.54074097509209 0)" font-family="sans-serif">TYPEOF</text></g><g class="relationship" transform="translate(334.4553897040876 202.10624623076592) rotate(241.07743504150227)"><path class="outline" fill="#A5ABB6" stroke="none" d="M 25 0.5 L 36.237079561612006 0.5 L 36.237079561612006 -0.5 L 25 -0.5 Z M 74.240985811612 0.5 L 85.47806537322401 0.5 L 85.47806537322401 3.5 L 92.47806537322401 0 L 85.47806537322401 -3.5 L 85.47806537322401 -0.5 L 74.240985811612 -0.5 Z"/><text text-anchor="middle" pointer-events="none" font-size="8px" fill="#000000" x="55.239032686612006" y="3" transform="rotate(180 55.239032686612006 0)" font-family="sans-serif">TYPEOF</text></g><g class="relationship" transform="translate(391.4763702980114 99.30585671197078) rotate(180.012644082086)"><path class="outline" fill="#A5ABB6" stroke="none" d="M 25 0.5 L 34.416328497930444 0.5 L 34.416328497930444 -0.5 L 25 -0.5 Z M 72.42023474793044 0.5 L 81.83656324586089 0.5 L 81.83656324586089 3.5 L 88.83656324586089 0 L 81.83656324586089 -3.5 L 81.83656324586089 -0.5 L 72.42023474793044 -0.5 Z"/><text text-anchor="middle" pointer-events="none" font-size="8px" fill="#000000" x="53.418281622930444" y="3" transform="rotate(180 53.418281622930444 0)" font-family="sans-serif">TYPEOF</text></g><g class="relationship" transform="translate(334.16348979821544 -3.905175315419685) rotate(478.7132608236269)"><path class="outline" fill="#A5ABB6" stroke="none" d="M 25 0.5 L 36.32461085483053 0.5 L 36.32461085483053 -0.5 L 25 -0.5 Z M 74.32851710483052 0.5 L 85.65312795966106 0.5 L 85.65312795966106 3.5 L 92.65312795966106 0 L 85.65312795966106 -3.5 L 85.65312795966106 -0.5 L 74.32851710483052 -0.5 Z"/><text text-anchor="middle" pointer-events="none" font-size="8px" fill="#000000" x="55.32656397983053" y="3" transform="rotate(180 55.32656397983053 0)" font-family="sans-serif">TYPEOF</text></g><g class="relationship" transform="translate(-196.39700887882796 203.7905042604359) rotate(299.5552389187429)"><path class="outline" fill="#A5ABB6" stroke="none" d="M 25 0.5 L 36.32576685677736 0.5 L 36.32576685677736 -0.5 L 25 -0.5 Z M 74.32967310677736 0.5 L 85.65543996355473 0.5 L 85.65543996355473 3.5 L 92.65543996355473 0 L 85.65543996355473 -3.5 L 85.65543996355473 -0.5 L 74.32967310677736 -0.5 Z"/><text text-anchor="middle" pointer-events="none" font-size="8px" fill="#000000" x="55.32771998177736" y="3" font-family="sans-serif">TYPEOF</text></g><g class="relationship" transform="translate(-115.50009425719665 224.42182406306372) rotate(259.4687553635889)"><path class="outline" fill="#A5ABB6" stroke="none" d="M 25 0.5 L 40.04029607113896 0.5 L 40.04029607113896 -0.5 L 25 -0.5 Z M 78.04420232113895 0.5 L 93.08449839227792 0.5 L 93.08449839227792 3.5 L 100.08449839227792 0 L 93.08449839227792 -3.5 L 93.08449839227792 -0.5 L 78.04420232113895 -0.5 Z"/><text text-anchor="middle" pointer-events="none" font-size="8px" fill="#000000" x="59.04224919613896" y="3" transform="rotate(180 59.04224919613896 0)" font-family="sans-serif">TYPEOF</text></g><g class="relationship" transform="translate(-121.1641953960876 -22.22841361736484) rotate(457.9167230227021)"><path class="outline" fill="#A5ABB6" stroke="none" d="M 25 0.5 L 39.92943115817029 0.5 L 39.92943115817029 -0.5 L 25 -0.5 Z M 77.93333740817029 0.5 L 92.86276856634058 0.5 L 92.86276856634058 3.5 L 99.86276856634058 0 L 92.86276856634058 -3.5 L 92.86276856634058 -0.5 L 77.93333740817029 -0.5 Z"/><text text-anchor="middle" pointer-events="none" font-size="8px" fill="#000000" x="58.93138428317029" y="3" transform="rotate(180 58.93138428317029 0)" font-family="sans-serif">TYPEOF</text></g><g class="relationship" transform="translate(-203.26295811775364 3.716286759260573) rotate(416.4119576874803)"><path class="outline" fill="#A5ABB6" stroke="none" d="M 25 0.5 L 36.15574907296338 0.5 L 36.15574907296338 -0.5 L 25 -0.5 Z M 74.15965532296337 0.5 L 85.31540439592676 0.5 L 85.31540439592676 3.5 L 92.31540439592676 0 L 85.31540439592676 -3.5 L 85.31540439592676 -0.5 L 74.15965532296337 -0.5 Z"/><text text-anchor="middle" pointer-events="none" font-size="8px" fill="#000000" x="55.15770219796338" y="3" font-family="sans-serif">TYPEOF</text></g><g class="relationship" transform="translate(-249.19890918414936 106.45639272056025) rotate(357.41083750890493)"><path class="outline" fill="#A5ABB6" stroke="none" d="M 25 0.5 L 32.97313456176543 0.5 L 32.97313456176543 -0.5 L 25 -0.5 Z M 70.97704081176542 0.5 L 78.95017537353085 0.5 L 78.95017537353085 3.5 L 85.95017537353085 0 L 78.95017537353085 -3.5 L 78.95017537353085 -0.5 L 70.97704081176542 -0.5 Z"/><text text-anchor="middle" pointer-events="none" font-size="8px" fill="#000000" x="51.97508768676543" y="3" font-family="sans-serif">TYPEOF</text></g></g><g class="layer nodes"><g class="node" transform="translate(71.2471658989374,190.3529343324672)"><circle class="outline" cx="0" cy="0" r="25" fill="#68BDF6" stroke="#5CA8DB" stroke-width="2px"/><text text-anchor="middle" pointer-events="none" font-family="sans-serif" dy="1.5625" font-size="25" fill="#FFFFFF"/><text text-anchor="middle" pointer-events="none" y="5" font-size="10px" fill="#FFFFFF" font-family="sans-serif"> julia</text></g><g class="node" transform="translate(-138.36199925663416,101.44432596749962)"><circle class="outline" cx="0" cy="0" r="25" fill="#FF756E" stroke="#E06760" stroke-width="2px"/><text text-anchor="middle" pointer-events="none" font-family="sans-serif" dy="1.5625" font-size="25" fill="#FFFFFF"/><text text-anchor="middle" pointer-events="none" y="5" font-size="10px" fill="#FFFFFF" font-family="sans-serif"> functional</text></g><g class="node" transform="translate(277.63980982407327,99.28073516112327)"><circle class="outline" cx="0" cy="0" r="25" fill="#FF756E" stroke="#E06760" stroke-width="2px"/><text text-anchor="middle" pointer-events="none" font-family="sans-serif" dy="1.5625" font-size="25" fill="#FFFFFF"/><text text-anchor="middle" pointer-events="none" y="5" font-size="10px" fill="#FFFFFF" font-family="sans-serif"> object-or…</text></g><g class="node" transform="translate(42.893618414868,137.65870302218067)"><circle class="outline" cx="0" cy="0" r="25" fill="#68BDF6" stroke="#5CA8DB" stroke-width="2px"/><text text-anchor="middle" pointer-events="none" font-family="sans-serif" dy="1.5625" font-size="25" fill="#FFFFFF"/><text text-anchor="middle" pointer-events="none" y="5" font-size="10px" fill="#FFFFFF" font-family="sans-serif"> lua</text></g><g class="node" transform="translate(102.65739223449148,139.4398521409956)"><circle class="outline" cx="0" cy="0" r="25" fill="#68BDF6" stroke="#5CA8DB" stroke-width="2px"/><text text-anchor="middle" pointer-events="none" font-family="sans-serif" dy="1.5625" font-size="25" fill="#FFFFFF"/><text text-anchor="middle" pointer-events="none" y="5" font-size="10px" fill="#FFFFFF" font-family="sans-serif"> c++</text></g><g class="node" transform="translate(74.28292670008224,86.64498670606935)"><circle class="outline" cx="0" cy="0" r="25" fill="#68BDF6" stroke="#5CA8DB" stroke-width="2px"/><text text-anchor="middle" pointer-events="none" font-family="sans-serif" dy="1.5625" font-size="25" fill="#FFFFFF"/><text text-anchor="middle" pointer-events="none" y="5" font-size="10px" fill="#FFFFFF" font-family="sans-serif"> ocaml</text></g><g class="node" transform="translate(133.9930928084569,88.30893193908112)"><circle class="outline" cx="0" cy="0" r="25" fill="#68BDF6" stroke="#5CA8DB" stroke-width="2px"/><text text-anchor="middle" pointer-events="none" font-family="sans-serif" dy="1.5625" font-size="25" fill="#FFFFFF"/><text text-anchor="middle" pointer-events="none" y="5" font-size="10px" fill="#FFFFFF" font-family="sans-serif"> java</text></g><g class="node" transform="translate(105.78257793838388,35.45589515471061)"><circle class="outline" cx="0" cy="0" r="25" fill="#68BDF6" stroke="#5CA8DB" stroke-width="2px"/><text text-anchor="middle" pointer-events="none" font-family="sans-serif" dy="1.5625" font-size="25" fill="#FFFFFF"/><text text-anchor="middle" pointer-events="none" y="5" font-size="10px" fill="#FFFFFF" font-family="sans-serif"> c#</text></g><g class="node" transform="translate(46.08325275306444,33.66177208409968)"><circle class="outline" cx="0" cy="0" r="25" fill="#68BDF6" stroke="#5CA8DB" stroke-width="2px"/><text text-anchor="middle" pointer-events="none" font-family="sans-serif" dy="1.5625" font-size="25" fill="#FFFFFF"/><text text-anchor="middle" pointer-events="none" y="5" font-size="10px" fill="#FFFFFF" font-family="sans-serif"> r</text></g><g class="node" transform="translate(14.812260443360373,84.74854071122728)"><circle class="outline" cx="0" cy="0" r="25" fill="#68BDF6" stroke="#5CA8DB" stroke-width="2px"/><text text-anchor="middle" pointer-events="none" font-family="sans-serif" dy="1.5625" font-size="25" fill="#FFFFFF"/><text text-anchor="middle" pointer-events="none" y="5" font-size="10px" fill="#FFFFFF" font-family="sans-serif"> python</text></g><g class="node" transform="translate(334.4553897040876,202.10624623076592)"><circle class="outline" cx="0" cy="0" r="25" fill="#68BDF6" stroke="#5CA8DB" stroke-width="2px"/><text text-anchor="middle" pointer-events="none" font-family="sans-serif" dy="1.5625" font-size="25" fill="#FFFFFF"/><text text-anchor="middle" pointer-events="none" y="5" font-size="10px" fill="#FFFFFF" font-family="sans-serif"> perl</text></g><g class="node" transform="translate(391.4763702980114,99.30585671197078)"><circle class="outline" cx="0" cy="0" r="25" fill="#68BDF6" stroke="#5CA8DB" stroke-width="2px"/><text text-anchor="middle" pointer-events="none" font-family="sans-serif" dy="1.5625" font-size="25" fill="#FFFFFF"/><text text-anchor="middle" pointer-events="none" font-family="sans-serif" dy="1.5625" font-size="25" fill="#FFFFFF"/><text text-anchor="middle" pointer-events="none" y="0" font-size="10px" fill="#FFFFFF" font-family="sans-serif"> visual</text><text text-anchor="middle" pointer-events="none" y="10" font-size="10px" fill="#FFFFFF" font-family="sans-serif"> basic</text></g><g class="node" transform="translate(334.16348979821544,-3.905175315419685)"><circle class="outline" cx="0" cy="0" r="25" fill="#68BDF6" stroke="#5CA8DB" stroke-width="2px"/><text text-anchor="middle" pointer-events="none" font-family="sans-serif" dy="1.5625" font-size="25" fill="#FFFFFF"/><text text-anchor="middle" pointer-events="none" y="5" font-size="10px" fill="#FFFFFF" font-family="sans-serif"> php</text></g><g class="node" transform="translate(-196.39700887882796,203.7905042604359)"><circle class="outline" cx="0" cy="0" r="25" fill="#68BDF6" stroke="#5CA8DB" stroke-width="2px"/><text text-anchor="middle" pointer-events="none" font-family="sans-serif" dy="1.5625" font-size="25" fill="#FFFFFF"/><text text-anchor="middle" pointer-events="none" y="5" font-size="10px" fill="#FFFFFF" font-family="sans-serif"> javascript</text></g><g class="node" transform="translate(-115.50009425719665,224.42182406306372)"><circle class="outline" cx="0" cy="0" r="25" fill="#68BDF6" stroke="#5CA8DB" stroke-width="2px"/><text text-anchor="middle" pointer-events="none" font-family="sans-serif" dy="1.5625" font-size="25" fill="#FFFFFF"/><text text-anchor="middle" pointer-events="none" y="5" font-size="10px" fill="#FFFFFF" font-family="sans-serif"> haskell</text></g><g class="node" transform="translate(-121.1641953960876,-22.22841361736484)"><circle class="outline" cx="0" cy="0" r="25" fill="#68BDF6" stroke="#5CA8DB" stroke-width="2px"/><text text-anchor="middle" pointer-events="none" font-family="sans-serif" dy="1.5625" font-size="25" fill="#FFFFFF"/><text text-anchor="middle" pointer-events="none" y="5" font-size="10px" fill="#FFFFFF" font-family="sans-serif"> elixir</text></g><g class="node" transform="translate(-203.26295811775364,3.716286759260573)"><circle class="outline" cx="0" cy="0" r="25" fill="#68BDF6" stroke="#5CA8DB" stroke-width="2px"/><text text-anchor="middle" pointer-events="none" font-family="sans-serif" dy="1.5625" font-size="25" fill="#FFFFFF"/><text text-anchor="middle" pointer-events="none" y="5" font-size="10px" fill="#FFFFFF" font-family="sans-serif"> erlang</text></g><g class="node" transform="translate(-249.19890918414936,106.45639272056025)"><circle class="outline" cx="0" cy="0" r="25" fill="#68BDF6" stroke="#5CA8DB" stroke-width="2px"/><text text-anchor="middle" pointer-events="none" font-family="sans-serif" dy="1.5625" font-size="25" fill="#FFFFFF"/><text text-anchor="middle" pointer-events="none" y="5" font-size="10px" fill="#FFFFFF" font-family="sans-serif"> rust</text></g></g></svg>