<svg xmlns="http://www.w3.org/2000/svg" width="311.18914794921875" height="310.45855712890625" viewBox="-58.073333740234375 -56.34910583496094 311.18914794921875 310.45855712890625"><title>Neo4j Graph Visualization</title><desc>Created using Neo4j (http://www.neo4j.com/)</desc><g class="layer relationships"><g class="relationship" transform="translate(96.24904076880412 100.3386226961606) rotate(462.79017992781496)"><path class="outline" fill="#A5ABB6" stroke="none" d="M 25 0.5 L 41.47079788821392 0.5 L 41.47079788821392 -0.5 L 25 -0.5 Z M 79.47470413821392 0.5 L 95.94550202642785 0.5 L 95.94550202642785 3.5 L 102.94550202642785 0 L 95.94550202642785 -3.5 L 95.94550202642785 -0.5 L 79.47470413821392 -0.5 Z"/><text text-anchor="middle" pointer-events="none" font-size="8px" fill="#000000" x="60.47275101321392" y="3" transform="rotate(180 60.47275101321392 0)" font-family="sans-serif">TYPEOF</text></g><g class="relationship" transform="translate(96.24904076880412 100.3386226961606) rotate(429.36786410108226)"><path class="outline" fill="#A5ABB6" stroke="none" d="M 25 0.5 L 41.55440770913266 0.5 L 41.55440770913266 -0.5 L 25 -0.5 Z M 79.55831395913266 0.5 L 96.11272166826532 0.5 L 96.11272166826532 3.5 L 103.11272166826532 0 L 96.11272166826532 -3.5 L 96.11272166826532 -0.5 L 79.55831395913266 -0.5 Z"/><text text-anchor="middle" pointer-events="none" font-size="8px" fill="#000000" x="60.55636083413266" y="3" font-family="sans-serif">TYPEOF</text></g><g class="relationship" transform="translate(96.24904076880412 100.3386226961606) rotate(395.44272139726877)"><path class="outline" fill="#A5ABB6" stroke="none" d="M 25 0.5 L 42.6157297463611 0.5 L 42.6157297463611 -0.5 L 25 -0.5 Z M 80.6196359963611 0.5 L 98.2353657427222 0.5 L 98.2353657427222 3.5 L 105.2353657427222 0 L 98.2353657427222 -3.5 L 98.2353657427222 -0.5 L 80.6196359963611 -0.5 Z"/><text text-anchor="middle" pointer-events="none" font-size="8px" fill="#000000" x="61.6176828713611" y="3" font-family="sans-serif">TYPEOF</text></g><g class="relationship" transform="translate(96.24904076880412 100.3386226961606) rotate(363.26663766332445)"><path class="outline" fill="#A5ABB6" stroke="none" d="M 25 0.5 L 41.535476940415364 0.5 L 41.535476940415364 -0.5 L 25 -0.5 Z M 79.53938319041536 0.5 L 96.07486013083073 0.5 L 96.07486013083073 3.5 L 103.07486013083073 0 L 96.07486013083073 -3.5 L 96.07486013083073 -0.5 L 79.53938319041536 -0.5 Z"/><text text-anchor="middle" pointer-events="none" font-size="8px" fill="#000000" x="60.537430065415364" y="3" font-family="sans-serif">TYPEOF</text></g><g class="relationship" transform="translate(96.24904076880412 100.3386226961606) rotate(331.5227990545437)"><path class="outline" fill="#A5ABB6" stroke="none" d="M 25 0.5 L 41.64614508898441 0.5 L 41.64614508898441 -0.5 L 25 -0.5 Z M 79.65005133898441 0.5 L 96.29619642796882 0.5 L 96.29619642796882 3.5 L 103.29619642796882 0 L 96.29619642796882 -3.5 L 96.29619642796882 -0.5 L 79.65005133898441 -0.5 Z"/><text text-anchor="middle" pointer-events="none" font-size="8px" fill="#000000" x="60.64809821398441" y="3" font-family="sans-serif">TYPEOF</text></g><g class="relationship" transform="translate(96.24904076880412 100.3386226961606) rotate(301.59674217787676)"><path class="outline" fill="#A5ABB6" stroke="none" d="M 25 0.5 L 41.56807078398492 0.5 L 41.56807078398492 -0.5 L 25 -0.5 Z M 79.57197703398492 0.5 L 96.14004781796984 0.5 L 96.14004781796984 3.5 L 103.14004781796984 0 L 96.14004781796984 -3.5 L 96.14004781796984 -0.5 L 79.57197703398492 -0.5 Z"/><text text-anchor="middle" pointer-events="none" font-size="8px" fill="#000000" x="60.57002390898492" y="3" font-family="sans-serif">TYPEOF</text></g><g class="relationship" transform="translate(96.24904076880412 100.3386226961606) rotate(269.65928757555093)"><path class="outline" fill="#A5ABB6" stroke="none" d="M 25 0.5 L 41.34303933811686 0.5 L 41.34303933811686 -0.5 L 25 -0.5 Z M 79.34694558811685 0.5 L 95.68998492623372 0.5 L 95.68998492623372 3.5 L 102.68998492623372 0 L 95.68998492623372 -3.5 L 95.68998492623372 -0.5 L 79.34694558811685 -0.5 Z"/><text text-anchor="middle" pointer-events="none" font-size="8px" fill="#000000" x="60.34499246311686" y="3" transform="rotate(180 60.34499246311686 0)" font-family="sans-serif">TYPEOF</text></g><g class="relationship" transform="translate(96.24904076880412 100.3386226961606) rotate(237.13087920567057)"><path class="outline" fill="#A5ABB6" stroke="none" d="M 25 0.5 L 42.327789959900514 0.5 L 42.327789959900514 -0.5 L 25 -0.5 Z M 80.33169620990051 0.5 L 97.65948616980103 0.5 L 97.65948616980103 3.5 L 104.65948616980103 0 L 97.65948616980103 -3.5 L 97.65948616980103 -0.5 L 80.33169620990051 -0.5 Z"/><text text-anchor="middle" pointer-events="none" font-size="8px" fill="#000000" x="61.329743084900514" y="3" transform="rotate(180 61.329743084900514 0)" font-family="sans-serif">TYPEOF</text></g><g class="relationship" transform="translate(96.24904076880412 100.3386226961606) rotate(202.73660262078334)"><path class="outline" fill="#A5ABB6" stroke="none" d="M 25 0.5 L 41.335442527124044 0.5 L 41.335442527124044 -0.5 L 25 -0.5 Z M 79.33934877712404 0.5 L 95.67479130424809 0.5 L 95.67479130424809 3.5 L 102.67479130424809 0 L 95.67479130424809 -3.5 L 95.67479130424809 -0.5 L 79.33934877712404 -0.5 Z"/><text text-anchor="middle" pointer-events="none" font-size="8px" fill="#000000" x="60.337395652124044" y="3" transform="rotate(180 60.337395652124044 0)" font-family="sans-serif">TYPEOF</text></g><g class="relationship" transform="translate(96.24904076880412 100.3386226961606) rotate(495.811226947578)"><path class="outline" fill="#A5ABB6" stroke="none" d="M 25 0.5 L 42.351534433985506 0.5 L 42.351534433985506 -0.5 L 25 -0.5 Z M 80.3554406839855 0.5 L 97.70697511797101 0.5 L 97.70697511797101 3.5 L 104.70697511797101 0 L 97.70697511797101 -3.5 L 97.70697511797101 -0.5 L 80.3554406839855 -0.5 Z"/><text text-anchor="middle" pointer-events="none" font-size="8px" fill="#000000" x="61.353487558985506" y="3" transform="rotate(180 61.353487558985506 0)" font-family="sans-serif">TYPEOF</text></g><g class="relationship" transform="translate(96.24904076880412 100.3386226961606) rotate(528.9615147872797)"><path class="outline" fill="#A5ABB6" stroke="none" d="M 25 0.5 L 41.34039481031372 0.5 L 41.34039481031372 -0.5 L 25 -0.5 Z M 79.34430106031371 0.5 L 95.68469587062744 0.5 L 95.68469587062744 3.5 L 102.68469587062744 0 L 95.68469587062744 -3.5 L 95.68469587062744 -0.5 L 79.34430106031371 -0.5 Z"/><text text-anchor="middle" pointer-events="none" font-size="8px" fill="#000000" x="60.34234793531372" y="3" transform="rotate(180 60.34234793531372 0)" font-family="sans-serif">TYPEOF</text></g></g><g class="layer nodes"><g class="node" transform="translate(96.24904076880412,100.3386226961606)"><circle class="outline" cx="0" cy="0" r="25" fill="#68BDF6" stroke="#5CA8DB" stroke-width="2px"/><text text-anchor="middle" pointer-events="none" font-family="sans-serif" dy="1.5625" font-size="25" fill="#FFFFFF"/><text text-anchor="middle" pointer-events="none" y="5" font-size="10px" fill="#FFFFFF" font-family="sans-serif"> python</text></g><g class="node" transform="translate(67.92429139759076,225.10945286833106)"><circle class="outline" cx="0" cy="0" r="25" fill="#FF756E" stroke="#E06760" stroke-width="2px"/><text text-anchor="middle" pointer-events="none" font-family="sans-serif" dy="1.5625" font-size="25" fill="#FFFFFF"/><text text-anchor="middle" pointer-events="none" y="5" font-size="10px" fill="#FFFFFF" font-family="sans-serif"> reflection</text></g><g class="node" transform="translate(141.39168588426054,220.23445684076455)"><circle class="outline" cx="0" cy="0" r="25" fill="#FF756E" stroke="#E06760" stroke-width="2px"/><text text-anchor="middle" pointer-events="none" font-family="sans-serif" dy="1.5625" font-size="25" fill="#FFFFFF"/><text text-anchor="middle" pointer-events="none" y="5" font-size="10px" fill="#FFFFFF" font-family="sans-serif"> object-or…</text></g><g class="node" transform="translate(202.35122545382373,175.86065190093376)"><circle class="outline" cx="0" cy="0" r="25" fill="#FF756E" stroke="#E06760" stroke-width="2px"/><text text-anchor="middle" pointer-events="none" font-family="sans-serif" dy="1.5625" font-size="25" fill="#FFFFFF"/><text text-anchor="middle" pointer-events="none" y="5" font-size="10px" fill="#FFFFFF" font-family="sans-serif"> interpret…</text></g><g class="node" transform="translate(224.11580049944183,107.63667404698153)"><circle class="outline" cx="0" cy="0" r="25" fill="#FF756E" stroke="#E06760" stroke-width="2px"/><text text-anchor="middle" pointer-events="none" font-family="sans-serif" dy="1.5625" font-size="25" fill="#FFFFFF"/><text text-anchor="middle" pointer-events="none" y="5" font-size="10px" fill="#FFFFFF" font-family="sans-serif"> imperative</text></g><g class="node" transform="translate(209.02228439345464,39.1658383859857)"><circle class="outline" cx="0" cy="0" r="25" fill="#FF756E" stroke="#E06760" stroke-width="2px"/><text text-anchor="middle" pointer-events="none" font-family="sans-serif" dy="1.5625" font-size="25" fill="#FFFFFF"/><text text-anchor="middle" pointer-events="none" y="5" font-size="10px" fill="#FFFFFF" font-family="sans-serif"> high-level</text></g><g class="node" transform="translate(163.38641401833632,-8.805524961625416)"><circle class="outline" cx="0" cy="0" r="25" fill="#FF756E" stroke="#E06760" stroke-width="2px"/><text text-anchor="middle" pointer-events="none" font-family="sans-serif" dy="1.5625" font-size="25" fill="#FFFFFF"/><text text-anchor="middle" pointer-events="none" y="5" font-size="10px" fill="#FFFFFF" font-family="sans-serif"> general-…</text></g><g class="node" transform="translate(95.48972990317691,-27.34910458203609)"><circle class="outline" cx="0" cy="0" r="25" fill="#FF756E" stroke="#E06760" stroke-width="2px"/><text text-anchor="middle" pointer-events="none" font-family="sans-serif" dy="1.5625" font-size="25" fill="#FFFFFF"/><text text-anchor="middle" pointer-events="none" y="5" font-size="10px" fill="#FFFFFF" font-family="sans-serif"> functional</text></g><g class="node" transform="translate(25.880002858486332,-8.563998288795887)"><circle class="outline" cx="0" cy="0" r="25" fill="#FF756E" stroke="#E06760" stroke-width="2px"/><text text-anchor="middle" pointer-events="none" font-family="sans-serif" dy="1.5625" font-size="25" fill="#FFFFFF"/><text text-anchor="middle" pointer-events="none" y="5" font-size="10px" fill="#FFFFFF" font-family="sans-serif"> dynamic</text></g><g class="node" transform="translate(-21.504317475839756,50.99291410167529)"><circle class="outline" cx="0" cy="0" r="25" fill="#FF756E" stroke="#E06760" stroke-width="2px"/><text text-anchor="middle" pointer-events="none" font-family="sans-serif" dy="1.5625" font-size="25" fill="#FFFFFF"/><text text-anchor="middle" pointer-events="none" y="5" font-size="10px" fill="#FFFFFF" font-family="sans-serif"> multi-par…</text></g><g class="node" transform="translate(3.243017253659056,190.74757681108352)"><circle class="outline" cx="0" cy="0" r="25" fill="#FF756E" stroke="#E06760" stroke-width="2px"/><text text-anchor="middle" pointer-events="none" font-family="sans-serif" dy="1.5625" font-size="25" fill="#FFFFFF"/><text text-anchor="middle" pointer-events="none" font-family="sans-serif" dy="1.5625" font-size="25" fill="#FFFFFF"/><text text-anchor="middle" pointer-events="none" y="0" font-size="10px" fill="#FFFFFF" font-family="sans-serif"> scripting</text><text text-anchor="middle" pointer-events="none" y="10" font-size="10px" fill="#FFFFFF" font-family="sans-serif"> language</text></g><g class="node" transform="translate(-29.073334600593114,124.78619499580867)"><circle class="outline" cx="0" cy="0" r="25" fill="#FF756E" stroke="#E06760" stroke-width="2px"/><text text-anchor="middle" pointer-events="none" font-family="sans-serif" dy="1.5625" font-size="25" fill="#FFFFFF"/><text text-anchor="middle" pointer-events="none" y="5" font-size="10px" fill="#FFFFFF" font-family="sans-serif"> program…</text></g></g></svg>